<?xml version="1.0" encoding="utf-8"?>
<!-- Generator: Adobe Illustrator 19.0.0, SVG Export Plug-In . SVG Version: 6.00 Build 0)  -->
<svg version="1.1" id="Layer_1" xmlns="http://www.w3.org/2000/svg" xmlns:xlink="http://www.w3.org/1999/xlink" x="0px" y="0px"
	 viewBox="0 0 28 28" style="enable-background:new 0 0 28 28;" xml:space="preserve">
<style type="text/css">
	.st0{fill:none;stroke:#000000;stroke-miterlimit:10;}
	.st1{fill:#EF4136;}
	.st2{fill:#2E3192;}
	.st3{fill:#FFFFFF;}
	.st4{fill:#908FB3;}
	.st5{fill:#B3B0A1;}
	.st6{fill:#C49A6C;}
</style>
<rect id="XMLID_1_" x="3.6" y="2.3" class="st0" width="21.1" height="20.9"/>
<g id="XMLID_2_">
	<g id="XMLID_14_">
		<path id="XMLID_18_" d="M8.2,12c-0.4,0.7,0.9-0.4,1.2-0.6c0.5-0.4,1.1-0.7,1.6-1c1.5-0.8,3-1.5,4.5-2.1c1.3-0.5,2.1-1.7,1.7-3.1
			c-0.3-1.2-1.8-2.3-3.1-1.7C12,4.4,9.9,5.3,8,6.4C6.6,7.2,4.6,8.2,3.9,9.5C2.3,12.4,6.7,14.9,8.2,12L8.2,12z"/>
	</g>
</g>
<g id="XMLID_3_">
	<g id="XMLID_21_">
		<path id="XMLID_25_" d="M7.9,17.8c0.2-0.5,0.7-0.7,1-1.2c0,0,0.1-0.1,0.1-0.1c-0.1-0.2-0.1-0.2,0-0.1c0.1,0.1,0.3,0.3,0.4,0.4
			c0.6,0.5,1.5,0.6,2.2,0.4c0.8-0.2,0.4-1.4-0.3-1.2c-0.4,0.1-0.8,0.1-1.1-0.1c-0.2-0.1-0.2-0.4-0.3-0.5c-0.3-0.3-0.6-0.3-1-0.2
			c-0.8,0.2-1.7,1.2-2,2C6.5,17.9,7.6,18.5,7.9,17.8L7.9,17.8z"/>
	</g>
</g>
<g id="XMLID_4_">
	<g id="XMLID_28_">
		<path id="XMLID_32_" d="M11.6,9.9c-0.1,2.6,0.1,5.3,2.7,6.7c0.7,0.4,1.3-0.7,0.6-1.1c-2.2-1.1-2.1-3.4-2-5.6
			C12.9,9.1,11.6,9.1,11.6,9.9L11.6,9.9z"/>
	</g>
</g>
<g id="XMLID_5_">
	<g id="XMLID_35_">
		<path id="XMLID_39_" d="M16.4,15.8C16.4,15.8,16.4,15.7,16.4,15.8c-0.3-0.5-0.9-0.5-1.1-0.1c-0.4,0.6-1.2,1-1.9,1.2
			c-0.7,0.2-0.6,1.2,0.2,1.2c1.4,0-0.1,1.7-0.4,2.2c-0.9,1-1.7,1.3-2.9,0.4c-0.6-0.5-1.3,0.6-0.6,1.1c2,1.5,3.6,0.5,4.9-1.3
			c0.5-0.7,1.2-1.7,0.9-2.6c-0.2-0.9-1.1-1.1-1.9-1.1c0.1,0.4,0.1,0.8,0.2,1.2c1-0.3,2-0.9,2.6-1.8c-0.4,0-0.7,0-1.1,0
			c0,0,0,0.1,0.1,0.1C15.8,17.1,16.9,16.5,16.4,15.8L16.4,15.8z"/>
	</g>
</g>
<g id="XMLID_6_">
	<g id="XMLID_42_">
		<path id="XMLID_46_" d="M6.2,19.4c-0.7,0.1-2.2,0-2.3,1c-0.1,0.4,0.3,0.8,0.7,0.9C5,21.4,5.4,21.2,5.8,21c0.3-0.1,0.5-0.4,0.4-0.8
			c-0.1-0.3-0.5-0.6-0.8-0.4c-0.1,0-0.2,0.1-0.4,0.1c0,0-0.1,0-0.1,0c-0.2,0-0.2,0.1,0.1,0.2c0,0.2,0,0.4,0,0.6c0,0.1-0.1,0,0.1,0
			c0.1,0,0.3-0.1,0.4-0.1c0.2,0,0.5,0,0.7-0.1C7,20.6,7,19.3,6.2,19.4L6.2,19.4z"/>
	</g>
</g>
<g id="XMLID_7_">
	<g id="XMLID_49_">
		<path id="XMLID_53_" d="M7,20.8c-0.8,0-2.1,0.8-1.4,1.7c0.3,0.4,0.7,0.4,1.1,0.2c0.1-0.1,0.2-0.1,0.3-0.2c0.1-0.1,0.1,0,0-0.1
			c0.2,0.1,0.4,0.4,0.6,0.6c0.3,0.2,0.7,0.1,0.9-0.2c0.3-0.5,0.3-1.1,0.4-1.6c0.1-0.7,0.2-1.3,0.4-2c0.2-0.8-1-1.1-1.2-0.3
			C8,19.5,7.8,20,7.7,20.6c-0.1,0.5-0.1,1.1-0.3,1.6C7.7,22.1,8,22,8.3,21.9c-0.5-0.3-0.7-0.9-1.4-0.7c-0.2,0-0.4,0.1-0.6,0.3
			c-0.1,0-0.1,0.1-0.2,0.1c0.2,0.2,0.3,0.4,0.5,0.5C6.7,22.1,6.9,22,7,22C7.8,22,7.8,20.8,7,20.8L7,20.8z"/>
	</g>
</g>
<g id="XMLID_8_">
	<g id="XMLID_56_">
		<path id="XMLID_60_" d="M19.9,13.6c-0.1-0.3-0.4-0.6-0.6-0.8c-0.2-0.2-0.5-0.4-0.7-0.7c-0.6-1.9-0.4-2.4,0.5-1.7
			c0.1,0.7-0.2,1.1,0.3,1.8c0.7,1,0.4-0.6,1.5,1.4c0.2,0.4,0.3,1,0.4,1.4c0.8,0.6,0.7,1.4-0.2,2.5c-0.5,0.2-1.1,0.3-1.7,0.3
			c-1.1,0-2.2-0.3-3.2-0.8c-0.7-0.4-1.3,0.7-0.6,1.1c2,1,6.1,1.9,7.5-0.5c0.5-0.9,0.3-1.8-0.2-2.6c-0.2-0.3-0.4-0.5-0.6-0.8
			c-0.3-0.5-0.2-0.9-0.4-1.4c-0.2-0.5-0.4-0.7-0.7-1c-0.6-0.6-0.8-0.4-0.8-1.4c0-0.4,0.2-1-0.1-1.4c-0.5-0.7-1.4-0.5-2.1-0.2
			c-0.8,0.5-1.4,1.4-1.4,2.3c0,1.5,1.5,1.9,2,3.1C19.1,15,20.2,14.4,19.9,13.6L19.9,13.6z"/>
	</g>
</g>
<g id="XMLID_10_">
	<g id="XMLID_63_">
		<path id="XMLID_67_" d="M15.8,9.4c-0.5,0.1-0.9,0.2-1.4,0.4c0,0-0.2,0-0.3,0.1c0,0,0,0-0.1,0c0.1,0.1,0.2,0.2,0.3,0.4
			c0,0,0.3-0.4,0.3-0.5C15.1,9,14,8.4,13.6,9.1c-0.4,0.5-0.8,1.4-0.1,1.9c0.7,0.5,1.6-0.2,2.3-0.3C16.6,10.5,16.6,9.3,15.8,9.4
			L15.8,9.4z"/>
	</g>
</g>
<g id="XMLID_12_">
	<g id="XMLID_70_">
		<path id="XMLID_74_" d="M17.5,7.6c0.5-0.3,1-0.6,1.6-0.7c0.7-0.2,1,0.1,1.7,0.3c0.7,0.2,1.4-0.2,1.7-0.8c0.3-0.7,0.1-1.6-0.5-2.2
			c-0.7-0.7-1.7-0.5-2.5-0.2c0.1,0.4,0.2,0.8,0.3,1.2c0.7-0.3,1.4-0.6,2-1c0.6-0.5,0-1.6-0.6-1.1c-0.5,0.4-1.1,0.7-1.7,0.9
			c-0.7,0.3-0.4,1.5,0.3,1.2c0.3-0.1,0.8-0.3,1.1-0.2c0.4,0.1,0.6,0.9,0,0.9c-0.4,0-0.8-0.4-1.2-0.4c-0.9,0-2.1,0.5-2.8,1
			C16.2,7,16.9,8.1,17.5,7.6L17.5,7.6z"/>
	</g>
</g>
<g id="XMLID_19_">
	<g id="XMLID_77_">
		<path id="XMLID_81_" d="M22.6,3.4c0-0.1,0.1-0.1,0.1-0.1c-0.1,0.1-0.3,0.1-0.4,0.2c0,0,0.2,0.1,0.2,0.2c0.1,0.1,0.3,0.1,0.4,0.1
			c0.3,0,0.5-0.2,0.7-0.3c-0.2,0.1-0.4,0.1-0.6,0.2c-0.1,0,0.1,0.1,0.1,0.2c0.1,0.1,0.2,0.2,0.3,0.3c0.5,0.6,1.4-0.3,0.9-0.9
			c-0.3-0.3-0.5-0.7-0.9-0.8c-0.2-0.1-0.4-0.1-0.6,0c-0.1,0-0.1,0.1-0.2,0.1c-0.1,0.2-0.1,0.2,0,0c0.2,0,0.3,0,0.5-0.1
			c-0.3,0-0.5-0.3-0.7-0.3c-0.3-0.1-0.6,0.1-0.8,0.3C21.2,3.1,22.1,4,22.6,3.4L22.6,3.4z"/>
	</g>
</g>
<g id="XMLID_26_">
	<g id="XMLID_84_">
		<path id="XMLID_88_" d="M22.4,5.2c-0.4,0.4-0.9,0.8-1,1.4c0,0.3,0,0.5,0.3,0.7c0.1,0.1,0.4,0.2,0.5,0.3c0.5,0.6,0.2,0.8-0.1,1.4
			c-0.2,0.4-0.3,0.7-0.2,1.1c0.1,0.3,0.2,0.4,0.3,0.6c0.3,0.3,2.7,1.4,0.6,1.9c-0.8,0.2-0.5,1.4,0.3,1.2c1.8-0.4,2.3-2.3,0.8-3.4
			c-0.7-0.5-0.8-0.5-0.5-1.3c0.1-0.4,0.3-0.7,0.3-1.2c-0.1-1-0.7-1.2-1.5-1.7c0.1,0.2,0.2,0.5,0.3,0.7c0-0.3,0.5-0.6,0.7-0.8
			C23.9,5.6,23,4.7,22.4,5.2L22.4,5.2z"/>
	</g>
</g>
<g id="XMLID_33_">
	<g id="XMLID_91_">
		<path id="XMLID_95_" d="M15.3,5c0.4-0.1,0.8-0.4,1.1-0.6c0.5-0.3,1-0.5,1.6-0.7c0.7-0.3,0.4-1.5-0.3-1.2c-0.5,0.2-1,0.4-1.5,0.7
			c-0.3,0.2-0.8,0.6-1.2,0.7C14.2,4,14.5,5.2,15.3,5L15.3,5z"/>
	</g>
</g>
<g id="XMLID_40_">
	<g id="XMLID_98_">
		<path id="XMLID_102_" d="M18.5,1.9c-1.5-0.4-3.3,0.6-4.8,1c-0.8,0.2-0.4,1.4,0.3,1.2c0.7-0.2,1.3-0.4,1.9-0.6
			c0.6-0.2,1.5-0.6,2.1-0.4C19,3.3,19.3,2.1,18.5,1.9L18.5,1.9z"/>
	</g>
</g>
<g id="XMLID_47_">
	<g id="XMLID_105_">
		<path id="XMLID_109_" d="M3.8,5.4c1.8-0.1,3.7-0.1,5.5-0.1C9.2,5,9,4.6,8.9,4.3c-0.8,0.9-1,2.8-0.4,3.9c0.9,1.7,3.5,1.4,5,1.3
			c0.8,0,0.8-1.3,0-1.2c-0.9,0.1-2.4,0.3-3.2-0.1c-0.9-0.5-1.2-2.2-0.5-3c0.3-0.4,0.1-1.1-0.4-1.1c-1.8,0-3.7,0-5.5,0.1
			C3,4.2,3,5.4,3.8,5.4L3.8,5.4z"/>
	</g>
</g>
<g id="XMLID_54_">
	<g id="XMLID_112_">
		<path id="XMLID_116_" d="M10,14.9c0.7-1.1,2.9-3.5,4.3-2.7c0.7,0.4,1.3-0.7,0.6-1.1c-2.2-1.3-5,1.4-6,3.1C8.5,15,9.5,15.6,10,14.9
			L10,14.9z"/>
	</g>
</g>
<g id="XMLID_61_">
	<g id="XMLID_119_">
		<path id="XMLID_123_" d="M10,9.7C9.9,9.6,9.9,9.6,10,9.7c-0.3-0.4-0.8-0.6-1-0.2c-2.2,2.8,0.8,5.4,3.5,5.6c1,0.1,2-0.1,3-0.1
			c1.8,0,2.5,0.4,3.3,1.9c0.4,0.8,0.5,1.5,0.9,2.2c0.7,1.5,2,2.1,2.7,3.4c0.4,0.7,1.5,0.1,1.1-0.6c-0.6-1.1-0.7-1.1-1.5-2
			c-1.5-1.6-1-3.6-2.6-5c-1-0.9-2.2-1.2-3.5-1.2c-0.8,0-1.5,0.1-2.3,0.2c-1.4,0-5.6-1.1-3.7-3.5c-0.3,0-0.7-0.1-1-0.1
			c0,0,0,0.1,0.1,0.1C9.3,11,10.4,10.3,10,9.7L10,9.7z"/>
	</g>
</g>
<g id="XMLID_68_">
	<g id="XMLID_126_">
		<path id="XMLID_130_" d="M24.1,5.4c-2.1,0-3.9,0.9-5.7,1.9c-1.2,0.6-2.4,1.5-3.6,2c-0.6,0.2-1.3,0.4-1.9,0.6
			c-0.1-1-0.2-2.1-0.2-3.1c0.4-1.2,2.1-1.4,3.1-1.6c0.6-0.1,0.7-1.1,0-1c-1.3,0-3.5,0.5-4.3-0.8c-0.1-0.1,0.2-0.5,0-0.8
			c-0.2-0.2-0.4-0.3-0.6-0.2c-0.1,0-0.1,0-0.2,0c-0.7,0.1-0.6,1.1,0.2,1c-0.9,0.2-0.6-0.3-1,0.6C9.8,4.1,9.8,4.3,10,4.5
			c1.3,1.1,4,0.7,5.6,0.7c0-0.3,0-0.7,0-1c-2,0.3-3.5,1.2-4.4,3c-0.5,1-1.1,2.7,0,3.6c1.1,0.8,2.9,0.1,4-0.4
			c2.9-1.3,5.4-3.7,8.7-3.7C24.6,6.5,24.9,5.4,24.1,5.4L24.1,5.4z"/>
	</g>
</g>
<g id="XMLID_75_">
	<g id="XMLID_133_">
		<path id="XMLID_137_" d="M5.2,14.7c0.2-0.1,0.3-0.2,0.5-0.3c-0.1-0.1-0.3-0.3-0.4-0.4c0.3,0.7-0.3,1.3,0.7,1.8
			C6.2,16,6.6,16,6.9,16c0.2,0,0.3-0.1,0.5-0.1c0.1,0,0.3-0.1,0.4-0.1c0.2-0.1,0.2,0-0.1,0.2c0.2,0.8,0.1,1.6,0.9,2.1
			c0.8,0.6,1.7,0.2,2.6-0.2c0.6-0.3-0.3-1.1-0.8-0.8c-0.5,0.3-1.1,0.6-1.4,0c-0.2-0.5-0.1-1-0.4-1.5c-0.3-0.6-0.9-0.8-1.5-0.7
			c-0.7,0.2-0.5,0.2-0.6-0.4c-0.1-0.3-0.1-0.4-0.3-0.6c-0.6-0.5-1.4-0.3-1.9,0.2C3.8,14.4,4.8,15.1,5.2,14.7L5.2,14.7z"/>
	</g>
</g>
<g id="XMLID_82_">
	<g id="XMLID_140_">
		<path id="XMLID_144_" d="M10.9,20.3c0.1-0.1,0.2-0.3,0.3-0.4c-0.2-0.1-0.3-0.1-0.5-0.2c-0.1-0.2-0.1-0.2-0.1-0.1c0,0,0,0.1,0,0.1
			c0,0.1,0.1,0.2,0.1,0.4c0.1,0.2,0.3,0.5,0.5,0.6c0.4,0.3,0.8,0.3,1.3,0.3c0.7-0.1,0.3-1.3-0.4-1.2c-0.4,0.1-0.4,0-0.5-0.4
			c-0.1-0.3-0.2-0.6-0.5-0.7c-0.5-0.2-1,0.4-1.2,0.8C9.6,20.2,10.6,21,10.9,20.3L10.9,20.3z"/>
	</g>
</g>
<g id="XMLID_89_">
	<g id="XMLID_147_">
		<path id="XMLID_151_" d="M13.2,19.6c0-0.1,0.3-0.5,0.4-0.5c0.5-0.1,0-0.1,0.3,0.1c0.2,0.1,0.3,0.4,0.5,0.5
			c0.3,0.2,0.5,0.3,0.8,0.3c0.2,0,0.5,0,0.7,0c0.5,0.1-0.1-0.2,0,0.3c0.2,0.5,0.7,0.8,1.2,0.8c0.6,0.1,1,0,1.5,0.3
			c0.4,0.2,0.7,0.4,1.1,0.5c0.8,0.3,0.4-0.5-0.1-0.6c-0.5-0.2-0.9-0.6-1.4-0.8c-0.3-0.1-1.1,0-1.2,0c-0.1-0.1-0.2-0.7-0.4-0.9
			c-0.3-0.2-0.6-0.3-1-0.3c-0.8-0.1-0.4-0.1-0.8-0.7c-0.2-0.3-0.5-0.5-0.8-0.5c-0.7-0.2-1.9,0.4-2,1.2C12,19.7,13.2,20.1,13.2,19.6
			L13.2,19.6z"/>
	</g>
</g>
<g id="XMLID_96_">
	<g id="XMLID_154_">
		<path id="XMLID_158_" class="st1" d="M4.8,14.4c0.9-0.3,1.5-0.3,2.3,0.2c0.3,0.2,0.6,0,0.7-0.3c0.1-0.3-0.2-0.6-0.4-0.8
			c-1.1-0.6-2-0.7-3.2-0.3C3.6,13.5,4.2,14.6,4.8,14.4L4.8,14.4z"/>
	</g>
</g>
<g id="XMLID_103_">
	<g id="XMLID_161_">
		<path id="XMLID_165_" class="st1" d="M8.8,17C8.8,17,8.8,16.9,8.8,17c0,0.1,0.1,0.3,0.2,0.5c0.2-0.5,0.9-0.9,1.4-1.1
			c0.6-0.3,1.3-0.5,1.9-0.5c0.7,0-0.1-0.9-0.6-0.8c-0.8,0-1.5,0.2-2.1,0.6c-0.6,0.3-1.5,0.7-1.7,1.4C7.9,17,8,17.2,8.2,17.3
			c0,0,0,0,0.1,0C8.7,17.8,9.5,17.5,8.8,17L8.8,17z"/>
	</g>
</g>
<g id="XMLID_110_">
	<g id="XMLID_168_">
		<path id="XMLID_172_" class="st1" d="M13.7,13.5c0-0.3,0.8-0.6,0.9-0.7c0.5-0.2,1-0.4,1.5-0.4c0.8-0.1,0.7-0.9,0-0.9
			c-0.9,0.1-1.7,0.3-2.5,0.8c-0.5,0.3-1.1,0.7-1.2,1.3C12.4,14.2,13.6,14.1,13.7,13.5L13.7,13.5z"/>
	</g>
</g>
<g id="XMLID_117_">
	<g id="XMLID_175_">
		<path id="XMLID_179_" class="st1" d="M15.2,11.3c0.1-0.5,1.1-0.9,1.5-1.1c0.6-0.2,1.1-0.4,1.7-0.4c0.4,0-0.3-1-0.7-1
			c-0.8,0-1.5,0.3-2.2,0.6c-0.4,0.2-1.2,0.5-1.3,1.1C14.2,10.9,15.1,11.7,15.2,11.3L15.2,11.3z"/>
	</g>
</g>
<g id="XMLID_124_">
	<g id="XMLID_182_">
		<path id="XMLID_186_" class="st1" d="M17.1,8.7C17.3,8.4,17.7,8.1,18,8c0.5-0.3,0.9-0.5,1.4-0.6C20.1,7.1,19.6,6,19,6.2
			c-1,0.4-2.4,0.8-2.9,1.8C16,8.5,16.8,9.4,17.1,8.7L17.1,8.7z"/>
	</g>
</g>
<g id="XMLID_131_">
	<g id="XMLID_189_">
		<path id="XMLID_193_" class="st1" d="M17.9,5.7c0.6-0.3,1.3-0.4,2-0.5c0.4-0.1-0.3-1.1-0.7-1c-0.8,0.1-1.5,0.3-2.2,0.6
			C16.8,4.9,17.5,5.9,17.9,5.7L17.9,5.7z"/>
	</g>
</g>
<g id="XMLID_138_">
	<g id="XMLID_196_">
		<path id="XMLID_200_" class="st1" d="M15.2,16.8c0.8-1,2.2-1.4,3.3-1.7c0.2-0.1-0.6-0.9-0.9-0.8c-1.2,0.4-2.6,0.8-3.4,1.8
			C14.1,16.3,15,17.1,15.2,16.8L15.2,16.8z"/>
	</g>
</g>
<g id="XMLID_145_">
	<g id="XMLID_203_">
		<path id="XMLID_207_" class="st1" d="M17.9,17.4c0.3-0.2,0.7-0.3,1-0.4c0.4-0.2,0.9-0.3,1.3-0.4c0.2,0-0.6-0.9-0.9-0.8
			c-0.7,0.2-1.8,0.3-2.4,0.9C16.7,16.8,17.6,17.7,17.9,17.4L17.9,17.4z"/>
	</g>
</g>
<g id="XMLID_152_">
	<g id="XMLID_210_">
		<path id="XMLID_214_" class="st1" d="M17.4,18.4C17.4,18.4,17.4,18.4,17.4,18.4c-0.5,0.3,0.6,0.5,0.8,0.5c0.7-0.2,1.5-0.3,2.2-0.4
			c0.2,0,0.4-0.2,0.2-0.4c-0.2-0.2-0.6-0.2-0.8-0.2c-0.8,0.1-1.5,0.3-2.2,0.4c0.3,0.1,0.6,0.3,0.8,0.4c0,0,0,0,0,0
			c0.2-0.2,0-0.3-0.2-0.4C18,18.3,17.6,18.3,17.4,18.4L17.4,18.4z"/>
	</g>
</g>
<g id="XMLID_159_">
	<g id="XMLID_217_">
		<path id="XMLID_221_" class="st1" d="M17.6,20.5c0,0-0.1,0-0.1,0c0.3,0.1,0.7,0.2,1,0.3c0.1-0.2,0.6-0.2,0.8-0.2
			c0.5-0.1,1-0.2,1.5-0.3c0.1,0-0.4-0.2-0.4-0.2c-0.2-0.1-0.5-0.2-0.8-0.1c-0.6,0.1-1.1,0.2-1.7,0.3c-0.2,0-0.5,0-0.6,0.2
			c-0.1,0.1,0.9,0.3,1,0.3c0.2,0,0.3,0,0.4,0c0.1,0-0.4-0.2-0.4-0.2C18.1,20.6,17.8,20.5,17.6,20.5L17.6,20.5z"/>
	</g>
</g>
<g id="XMLID_166_">
	<g id="XMLID_224_">
		<path id="XMLID_228_" class="st1" d="M9.8,20.1c0.7-0.5,1.7-1,2.6-1c0.3,0,0.7-0.1,0.7-0.4c0.1-0.3-0.2-0.6-0.5-0.6
			c-1.4,0-2.7,0.5-3.8,1.4c-0.2,0.2-0.2,0.6,0.1,0.7C9.2,20.3,9.6,20.3,9.8,20.1L9.8,20.1z"/>
	</g>
</g>
<g id="XMLID_173_">
	<g id="XMLID_231_">
		<path id="XMLID_235_" class="st1" d="M10.3,21.4c-0.1,0,1-0.6,1.1-0.6c0.5-0.2,0.9-0.3,1.4-0.5c0.1,0-0.4-0.2-0.4-0.2
			c-0.2,0-0.5-0.1-0.8,0c-0.9,0.2-1.9,0.5-2.6,1.1c0,0,0,0,0,0.1c0,0,0,0,0.1,0c0.2,0.1,0.5,0.2,0.8,0.2
			C9.9,21.5,10.4,21.4,10.3,21.4L10.3,21.4z"/>
	</g>
</g>
<g id="XMLID_180_">
	<g id="XMLID_238_">
		<path id="XMLID_242_" class="st1" d="M11.3,22.2C11.3,22.2,11.2,22.2,11.3,22.2C11.2,22.3,11.3,22.3,11.3,22.2
			c0.5,0.1,0.9,0,1.4-0.2c0.6-0.2,1.1-0.5,1.7-0.7c0.1,0,0.4-0.1,0.2-0.2c-0.2-0.1-0.7,0.1-0.8,0.2c-0.4,0.1-0.7,0.3-1.1,0.4
			c-0.3,0.1-0.6,0.3-0.8,0.3c0.2,0,0.5-0.1,0.7-0.1c0,0,0,0,0,0c0.1-0.1-0.4,0-0.5,0C11.8,22,11.4,22,11.3,22.2L11.3,22.2z"/>
	</g>
</g>
<g id="XMLID_187_">
	<g id="XMLID_245_">
		<path id="XMLID_249_" class="st1" d="M4.8,20c0.4,0.4,1,0.8,1.6,0.9c0.7,0.1,1.3-0.2,1.8-0.6c0.1-0.1-0.7-0.9-1-0.7
			c-0.3,0.2-0.6,0.4-0.9,0.5c-0.1,0-0.3,0.1-0.4,0.1c-0.1,0-0.5-0.1-0.4,0c-0.2-0.1-0.5-0.5-0.7-0.4C4.6,19.7,4.7,19.8,4.8,20
			L4.8,20z"/>
	</g>
</g>
<g id="XMLID_194_">
	<g id="XMLID_252_">
		<path id="XMLID_256_" class="st1" d="M5.7,17.7C5.7,17.7,5.7,17.7,5.7,17.7c0,0,0,0.1-0.1,0.2c0.2-0.2,0.4-0.4,0.5-0.6
			c0.3-0.4-0.9-0.4-1.1-0.1c-0.2,0.2-0.4,0.4-0.5,0.6c-0.1,0.1-0.1,0.2,0,0.2c0,0,0,0,0,0C4.8,18.3,6,18,5.7,17.7L5.7,17.7z"/>
	</g>
</g>
<g id="XMLID_201_">
	<g id="XMLID_259_">
		<path id="XMLID_263_" class="st1" d="M5,16.3C5,16.3,5,16.3,5,16.3c0.2,0.3,0.5,0.6,0.7,0.8c0-0.1,0.4-0.4,0.5-0.5
			c0.4-0.3-0.4-1.3-0.8-1c-0.3,0.2-0.7,0.5-0.7,0.9c0,0.3,0.4,1,0.8,0.8c0,0,0,0,0,0C6.1,17.1,5.4,16.1,5,16.3L5,16.3z"/>
	</g>
</g>
<g id="XMLID_208_">
	<g id="XMLID_266_">
		<path id="XMLID_270_" class="st1" d="M5.3,16.9c0.6-0.2,0.8-0.5,1.4-0.7c0.3-0.1,0.5-0.3,0.7-0.5c0.1-0.1,0.1-0.2-0.1-0.1
			C7,15.8,6.7,15.9,6.4,16c-0.1,0.1-0.3,0.2-0.4,0.2c-0.1,0.1-0.5,0.2-0.1,0.1c-0.3,0.1-0.6,0.3-0.7,0.5C5.1,16.9,5,17,5.3,16.9
			L5.3,16.9z"/>
	</g>
</g>
<g id="XMLID_215_">
	<g id="XMLID_273_">
		<path id="XMLID_277_" class="st1" d="M14.9,12.5c0.1-0.9-0.1-1.7-0.9-2.2c-0.8-0.5-1.7-0.5-2.6-0.6c0.3,0.1,0.7,0.3,1,0.4
			c0-0.3,0.6-0.5,0.9-0.6c0.6-0.2,1.1-0.3,1.8-0.3c0.3,0,0.2-0.1,0.1-0.2c-0.2-0.2-0.6-0.3-0.8-0.3c-0.6,0-1.3,0.1-1.9,0.3
			c-0.3,0.1-1.2,0.3-1.2,0.7c0,0.3,0.8,0.4,1,0.4c0.6,0,1,0,1.3,0.6c0.2,0.4,0.2,0.9,0.1,1.4C13.7,12.4,14.9,12.7,14.9,12.5
			L14.9,12.5z"/>
	</g>
</g>
<g id="XMLID_222_">
	<g id="XMLID_280_">
		<path id="XMLID_284_" class="st1" d="M16.7,11.3c0.8,0.6,2.1,0.5,3.1,0.4c-0.2,0-0.4,0-0.6,0c-0.2-0.1,0,0-0.1,0.1
			c-0.1,0.1-0.1,0.3-0.2,0.4c-0.1,0.2-0.2,0.5,0,0.7c0.2,0.3,0.9,0.4,1.2,0.4c0.1,0,0.5,0,0.5-0.2c0-0.2-0.6-0.2-0.7-0.2
			c0.2,0,0.6-0.9,0.5-1.1c-0.1-0.2-0.3-0.3-0.5-0.4c-0.3-0.1-0.6-0.1-0.9-0.1c-0.3,0-0.9,0.1-1.1-0.1c-0.2-0.2-0.6-0.2-0.8-0.2
			C16.9,11.1,16.5,11.2,16.7,11.3L16.7,11.3z"/>
	</g>
</g>
<g id="XMLID_229_">
	<g id="XMLID_287_">
		<path id="XMLID_291_" class="st1" d="M20.6,13.9c-0.7,1.3-1.1,2.6-0.1,3.9c0.5,0.6,1.3,0,0.8-0.6c-0.6-0.8-0.1-1.7,0.3-2.5
			C21.8,14.1,20.9,13.2,20.6,13.9L20.6,13.9z"/>
	</g>
</g>
<g id="XMLID_236_">
	<g id="XMLID_294_">
		<path id="XMLID_298_" class="st1" d="M21.2,19.3c0,0.2,0.1,0.4,0.2,0.6c0.1,0.2,1.1-0.4,1.1-0.6c0.1-1.4-0.1-2.9,0-4.3
			c0,0-1.1,0.2-1.1,0.6c-0.1,1.4,0.1,2.9,0,4.3c0.4-0.2,0.7-0.4,1.1-0.6c-0.1-0.2-0.1-0.4-0.2-0.6C22.3,18.7,21.1,19,21.2,19.3
			L21.2,19.3z"/>
	</g>
</g>
<g id="XMLID_243_">
	<g id="XMLID_301_">
		<path id="XMLID_305_" class="st1" d="M22.7,12c0-0.7-0.3-1.2-0.9-1.6c-0.2-0.2-0.7-0.3-0.6-0.7c0.1-0.3,0.3-0.5,0.3-0.8
			c0.1-0.7-1.1-0.6-1.2,0c-0.1,0.6-0.7,1-0.2,1.7c0.2,0.2,0.5,0.3,0.7,0.5c0.5,0.3,0.6,0.7,0.6,1.2C21.6,12.8,22.8,12.6,22.7,12
			L22.7,12z"/>
	</g>
</g>
<g id="XMLID_250_">
	<g id="XMLID_308_">
		<path id="XMLID_312_" class="st2" d="M4.3,6.8C4.1,8.3,5.7,9.3,7,9c0.7-0.1,1.4-0.5,1.7-1.2C9,7.5,9.1,7.1,9.1,6.7
			c0-0.2-0.1-0.5,0-0.7c0.2-0.9,1.3-0.4,2-0.1c0.3,0.1,1.5,0,0.9-0.3C11,5.2,9,4.4,8.1,5.2C7.6,5.6,7.9,6.5,7.8,7.1
			C7.7,7.5,7.2,8.4,6.7,8.5c-0.8,0.2-1.2-1-1.1-1.6C5.6,6.6,4.4,6.4,4.3,6.8L4.3,6.8z"/>
	</g>
</g>
<g id="XMLID_257_">
	<g id="XMLID_315_">
		<path id="XMLID_319_" class="st2" d="M13.7,5.3c0.1,0,0.2,0,0.3,0c-0.2-0.1-0.3-0.2-0.5-0.2c0,0,0.1,0.1,0.1,0.1
			c-0.1-0.1-0.3-0.2-0.4-0.4C13.5,5.2,13,5.6,12.9,6c0,0.3,0.2,0.5,0.5,0.7C13.7,6.9,14,7,14.3,7.1c0.4,0,0.9-0.2,1.2-0.1
			c-0.2-0.1-0.4-0.3-0.6-0.4c-0.1-0.1-0.3,0.9-0.3,0.9c0,0.3,1,0.7,1,0.7c0-0.3,0.3-0.8,0.2-1.1c-0.1-0.2-0.3-0.4-0.5-0.5
			c-0.2-0.2-0.5-0.3-0.8-0.3c-0.4-0.1-1,0.3-1.3,0.1c0.2,0.2,0.5,0.4,0.7,0.6c-0.1-0.7,0.7-1.2,0.1-1.8c-0.3-0.3-1-0.8-1.4-0.5
			C12.6,4.6,13.4,5.5,13.7,5.3L13.7,5.3z"/>
	</g>
</g>
<g id="XMLID_264_">
	<g id="XMLID_322_">
		<path id="XMLID_326_" class="st2" d="M15.9,8.8c-1.4,0-2.7,0.3-4.1,0.3c-0.8,0,0.2,0.5,0.5,0.5c1.4,0,2.7-0.3,4.1-0.3
			C17.3,9.3,16.3,8.8,15.9,8.8L15.9,8.8z"/>
	</g>
</g>
<g id="XMLID_271_">
	<g id="XMLID_329_">
		<path id="XMLID_333_" class="st2" d="M13.2,7.6c0-0.2,0-0.4,0.2-0.6c-0.3-0.2-0.6-0.4-0.9-0.6c0.2,0.6,0.1,1.2,0.3,1.8
			c0.2,0.5,0.6,0.9,1,1.2c0.2,0.1,0.5,0.3,0.6,0c0.1-0.2-0.2-0.6-0.4-0.7c-0.6-0.4-0.4-1.5-0.6-2.1c-0.1-0.3-0.6-0.8-0.9-0.6
			c-0.2,0.2-0.3,0.5-0.3,0.7C12.1,7.3,13.1,8,13.2,7.6L13.2,7.6z"/>
	</g>
</g>
<g id="XMLID_278_">
	<g id="XMLID_336_">
		<path id="XMLID_340_" class="st2" d="M10.6,8.9C9.7,8.5,9,8.9,8.4,9.7c-0.3,0.5-0.4,1.1-0.7,1.6c-0.4,0.6-0.7,0.7-1.3,0.6
			c-0.3-0.1-1.1-0.1-1.3-0.5c-0.1,0.2-0.2,0.3-0.3,0.5c0,0,0.1,0,0.1,0c0.6,0.2,1.3-0.4,0.5-0.7C5,11,4.8,11,4.4,11.1
			c-0.3,0.1-0.5,0.2-0.3,0.5c0.5,1,2.5,1.3,3.5,1.2c0.6-0.1,1-0.2,1.2-0.7c0.2-0.3,0.8-2.7,1.3-2.5C10.7,9.8,11.4,9.2,10.6,8.9
			L10.6,8.9z"/>
	</g>
</g>
<g id="XMLID_285_">
	<g id="XMLID_343_">
		<path id="XMLID_347_" class="st2" d="M17.8,20.6c-0.2,0-0.6,0-0.6-0.1c0-0.1,0.2-0.4,0.2-0.5c0.2-0.4,0.7-0.7,1-0.2
			c0.2,0.3,0.2,0.7,0.4,1c0.2,0.3,0.4,0.5,0.7,0.7c0.7,0.4,0.9-0.6,0.3-0.9c-0.2-0.1-0.3-0.8-0.4-1c-0.2-0.3-0.4-0.6-0.8-0.9
			c-0.6-0.4-1.3-0.4-1.9,0.1c-0.5,0.4-0.8,1.3-0.5,1.9c0.3,0.7,1.2,0.9,1.9,0.9C18.9,21.6,18.4,20.6,17.8,20.6L17.8,20.6z"/>
	</g>
</g>
<g id="XMLID_292_">
	<g id="XMLID_350_">
		<path id="XMLID_354_" class="st2" d="M23.3,14.3c0.1-0.1,0.1-0.1,0.2-0.2c0.2-0.3-0.2-0.7-0.5-0.8c-0.2-0.1-0.2,0,0.1,0.1
			c0-0.1,0-0.2,0-0.2c0-0.2-0.1-0.5-0.2-0.7c-0.2-0.5-0.3-1-0.5-1.5c-0.1-0.6-1.3-0.8-1.2-0.1c0.2,0.8,0.5,1.5,0.6,2.2
			c0.1,0.6,0.3,1,1,1.1c-0.2-0.3-0.3-0.5-0.5-0.8c0,0,0,0,0,0C21.8,14,22.8,14.7,23.3,14.3L23.3,14.3z"/>
	</g>
</g>
<g id="XMLID_299_">
	<g id="XMLID_357_">
		<path id="XMLID_361_" class="st2" d="M21.7,9c0.2-0.1,0.1-0.1,0.2-0.3c0,0.1-1.2,0.1-1.2,0.3c-0.1,0.5,0.8,0.1,1.1,0.1
			c0,0,0.6-0.2,0.6-0.2C22.2,8.9,21.7,9,21.7,9L21.7,9z"/>
	</g>
</g>
<g id="XMLID_306_">
	<g id="XMLID_364_">
		<path id="XMLID_368_" class="st2" d="M12.4,6.9c-0.6-0.2-1,0.1-1.6,0.2c0.1,0.1,0.2,0.1,0.3,0.2c0,0,0,0-0.1-0.1
			c0.1,0.3,0.3,0.6,0.4,0.8c0.2-0.4,0.5-0.8,0.7-1.2c0.2-0.3-0.6-1.2-0.8-0.9c-0.2,0.4-0.5,0.8-0.7,1.2c-0.1,0.2,0.3,0.7,0.4,0.8
			c0.2,0.2,0.3,0.2,0.6,0.2c0.5-0.1,0.8-0.3,1.3-0.1c0.2,0.1,0-0.5,0-0.5C12.8,7.2,12.7,6.9,12.4,6.9L12.4,6.9z"/>
	</g>
</g>
<g id="XMLID_313_">
	<g id="XMLID_371_">
		<path id="XMLID_375_" class="st2" d="M8.9,5.5c0.2,0.6,0.7,1,1.3,1.3c0.2,0.1,0.3,0,0.2-0.2C10.4,6.4,10.1,6,9.8,5.9
			c-0.1,0-0.1-0.1-0.2-0.1c-0.2-0.1-0.2,0,0.2,0.3C9.7,5.9,9.5,5.7,9.3,5.5C9.2,5.4,8.9,5.2,8.9,5.5L8.9,5.5z"/>
	</g>
</g>
<g id="XMLID_320_">
	<g id="XMLID_378_">
		<path id="XMLID_382_" class="st2" d="M11.3,12.2c0.2-0.1,0.3-0.2,0.5-0.3c0.1-0.1,0.5-0.3,0.4-0.5c-0.1-0.2-0.6,0-0.7,0.1
			c-0.2,0.1-0.3,0.2-0.5,0.3c-0.1,0.1-0.5,0.3-0.4,0.5C10.7,12.5,11.2,12.2,11.3,12.2L11.3,12.2z"/>
	</g>
</g>
<g id="XMLID_327_">
	<g id="XMLID_385_">
		<path id="XMLID_389_" class="st2" d="M12,12.2c-1.2,0.5-2.6,0.4-3.9,0.6c-0.4,0.1-1.2,0.1-1.4,0.4c-0.3,0.5,0.3,0.9,0.7,1
			c0.3,0.1,0.8-0.1,1.1,0.1c0.4,0.3,0.1,0.9,0,1.4c0,0,1.2,0.1,1.2-0.2c0.1-0.3,0.4-1,0.2-1.3C9.8,14,9.7,14.1,9.4,14
			c-0.5-0.2-0.1,0.5-1.2-0.1c-1-0.5-0.2-0.9,0.4-1c1.5-0.3,2.9-0.2,4.4-0.7c0.2-0.1-0.2-0.1-0.2-0.1C12.6,12.1,12.3,12.1,12,12.2
			L12,12.2z"/>
	</g>
</g>
<g id="XMLID_334_">
	<g id="XMLID_392_">
		<path id="XMLID_396_" class="st2" d="M7.6,9.8c-0.1,0-0.1,0-0.2,0.1c-0.3,0.1,0.6,0.9,0.9,0.8c0.1,0,0.1,0,0.2-0.1
			C8.8,10.5,7.9,9.7,7.6,9.8L7.6,9.8z"/>
	</g>
</g>
<g id="XMLID_341_">
	<g id="XMLID_399_">
		<path id="XMLID_403_" class="st2" d="M6.2,10.5c0-0.1,0.3-0.4,0.4-0.4c0,0,0,0.5,0,0.5c0.1,0.4,0.4,0.6,0.8,0.8
			c0.4,0.2,1.4-0.4,0.9-0.7c-0.2-0.1-0.4-0.3-0.5-0.5c-0.1-0.2,0-0.3-0.1-0.5C7.7,9.5,7.4,9.4,7.1,9.4c-0.8,0-1.5,0.6-2,1.2
			c-0.2,0.2,0.2,0.4,0.4,0.4C5.7,10.9,6.1,10.8,6.2,10.5L6.2,10.5z"/>
	</g>
</g>
<g id="XMLID_348_">
	<g id="XMLID_406_">
		<path id="XMLID_410_" class="st2" d="M12.7,10.5c-0.4-0.4-0.7-0.7-1.2-0.9c0,0.3,0,0.7,0,1c0.6,0,0.6,1.8,1,2.3
			c0.3,0.3,0.6,0.3,0.9,0.5c0.5,0.3,0.6,0.6,0.9,1.1c0.7,1.3,1.7,1.5,3.1,1.4c0.7-0.1,0.2-1.2-0.4-1.1c-0.7,0.1-1.2,0.2-1.7-0.5
			c-0.2-0.3-0.3-0.7-0.5-0.9c-0.4-0.6-1-0.7-1.4-1.2c-0.4-0.5-0.2-1.3-0.7-1.9c-0.4-0.5-1-0.7-1.6-0.7c-0.6,0-0.3,0.8,0,1
			c0.4,0.2,0.6,0.4,0.9,0.7C12.5,11.8,13.2,11.1,12.7,10.5L12.7,10.5z"/>
	</g>
</g>
<g id="XMLID_355_">
	<g id="XMLID_413_">
		<path id="XMLID_417_" class="st2" d="M23.3,10.9c-0.3-0.6-0.6-1.1-0.9-1.6c-0.5-0.9-0.5-1.4-0.3-2.3c0.1-0.3,0.2-0.5,0-0.7
			c-0.3-0.4-0.9-0.5-1.2-0.9c-0.2-0.3-1.4,0-1.2,0.3c0.3,0.4,0.5,0.4,0.8,0.7c0.6,0.5,0.2,1.1,0.2,1.8c0.1,1.1,1,2.1,1.5,3.1
			C22.3,11.6,23.5,11.4,23.3,10.9L23.3,10.9z"/>
	</g>
</g>
<g id="XMLID_362_">
	<g id="XMLID_420_">
		<path id="XMLID_424_" class="st2" d="M16.4,3.3c-1.1,0-2.1,0.5-3.1,0.9c-0.8,0.3-0.4,1.3,0.4,1c0.9-0.3,1.8-0.8,2.7-0.8
			C17.2,4.3,17.2,3.2,16.4,3.3L16.4,3.3z"/>
	</g>
</g>
<g id="XMLID_369_">
	<g id="XMLID_427_">
		<path id="XMLID_431_" class="st2" d="M4.6,2.9C4.5,3.1,4.3,3.2,4.1,3.4C4,3.4,4.4,3.4,4.4,3.4c0.2,0,0.5-0.1,0.7-0.1
			c0.2-0.1,0.1-0.1-0.4,0c-0.1,0-0.2,0-0.3,0c0.2,0.1,0.1,0.4,0.1,0.6c0,0.2,0.2,0.5,0.3,0.7c0.2,0.2,1.2-0.2,1.2-0.2
			C5.9,4.1,5.8,3.8,5.8,3.5c0-0.2,0-0.3-0.2-0.4c-0.4-0.1-1,0.1-1.4,0.2c0.3,0,0.7,0,1-0.1C5.5,3.1,5.7,3,5.8,2.8
			C6,2.7,5.4,2.7,5.4,2.7C5.2,2.8,4.8,2.8,4.6,2.9L4.6,2.9z"/>
	</g>
</g>
<g id="XMLID_376_">
	<g id="XMLID_434_">
		<path id="XMLID_438_" class="st2" d="M8.4,4.4c0.1-0.1,0.4-0.2,0.5-0.1C8.7,4.1,8.6,3.9,8.4,3.7c0.1,0.2,0.1,0.4,0.2,0.6
			C8.6,4.6,8.7,4.8,8.8,5c0.2,0.4,0.6,0.8,1,0.9c0.2,0.1,0.1-0.2,0-0.3C9.7,5.4,9.5,5.1,9.3,5c0.2,0.3,0.2,0.3,0.1,0.1
			c0-0.1,0-0.1,0-0.2c0-0.2-0.1-0.3-0.1-0.5C9.1,4.2,9,4,8.8,3.8C8.4,3.3,8.1,3.2,7.6,3.5C7.5,3.5,8.1,4.5,8.4,4.4L8.4,4.4z"/>
	</g>
</g>
<g id="XMLID_383_">
	<g id="XMLID_441_">
		<path id="XMLID_445_" class="st2" d="M11.8,4c0.2,0,0.6,0.3,0.7,0.3c0.2,0.1,0.5,0.2,0.7,0.3c0.3,0.1,0.7,0.2,0.9,0.5
			c0.2,0.3,0.1,0.4,0.1,0.7c-0.1,0.4-0.2,0.6,0,0.9c0.2,0.3,0.6,0.5,0.9,0.6c0.2,0.1,0.5,0,0.6-0.2c0-0.3-0.4-0.5-0.6-0.5
			c0.3,0.1,0.2-0.1,0.3-0.4c0.1-0.2,0.1-0.5,0.1-0.7c-0.1-0.5-0.6-0.8-1-1c-0.5-0.3-1.1-0.5-1.7-0.7c-0.6-0.2-1-0.5-1.6-0.5
			c-0.3,0-0.3,0.3-0.2,0.5C11.1,3.9,11.5,4,11.8,4L11.8,4z"/>
	</g>
</g>
<g id="XMLID_390_">
	<g id="XMLID_448_">
		<path id="XMLID_452_" class="st2" d="M19.5,4.8C19.5,4.8,19.5,4.8,19.5,4.8c-0.1-0.5-0.9-1.1-1-0.3c-0.1,0.5,0.2,1,0.3,1.4
			c0.2,0.6,0.3,1.2,0.5,1.8c0.1,0.3,0.3,0.6,0.6,0.6c0.3,0,0.5-0.2,0.4-0.5c-0.1-0.5-0.2-0.9-0.3-1.4C19.8,6,19.4,5.3,19.5,4.8
			c-0.3,0-0.7-0.1-1-0.2c0,0,0,0,0,0C18.6,5.2,19.6,5.6,19.5,4.8L19.5,4.8z"/>
	</g>
</g>
<g id="XMLID_397_">
	<g id="XMLID_455_">
		<path id="XMLID_459_" class="st2" d="M23,19c-1,0.5-2,0.9-3.1,1.1c-0.6-0.2-1.2-0.4-1.7-0.6c-0.6-0.2-1.2-0.4-1.8-0.5
			c-1.9-0.3-3.9,0-5.8,0.6c-0.8,0.2-0.1,1.2,0.5,1c2.9-0.9,5.1-0.6,7.9,0.3c0.9,0.3,2,0.7,3,0.3c0.9-0.4,2.3-2.3,0.8-2.8
			c-1.1-0.3-1.5,1.2-0.7,1.8c1.1,0.7,2.6-0.6,1.9-1.8C23.5,17.9,22.5,18.4,23,19L23,19z"/>
	</g>
</g>
<g id="XMLID_404_">
	<g id="XMLID_462_">
		<path id="XMLID_466_" class="st2" d="M13.2,15.6c-0.6,0-1.1,0.3-1.7,0.3c-0.4,0-0.8-0.2-1.2-0.2c-1.2-0.1-1.8,1.2-2.8,1.2
			C7.8,17,8,17.1,8.2,17.2c-0.6-0.6-1.4-1.7-2.4-1.6C5,15.7,4.9,16.4,5,17.1c0.1,1.2,0.8,3.8,2.6,3.2c1.3-0.5-0.3-2-1.1-1.5
			c-0.5,0.3-0.3,0.7,0,1.1c0.6,0.6,1.7,0.7,2.5,0.7c0.7,0-0.1-0.8-0.6-0.8C7,19.8,6,18.8,6.2,17.5c0.1-1.2,0.7-0.3,1.2,0
			c0.4,0.2,0.7,0.3,1.2,0.2c0.5-0.1,0.8-0.6,1.2-0.8c0.6-0.3,1-0.1,1.5-0.1c0.9,0,1.6-0.3,2.5-0.3C14.5,16.4,13.7,15.6,13.2,15.6
			L13.2,15.6z"/>
	</g>
</g>
<g id="XMLID_411_">
	<g id="XMLID_469_">
		<path id="XMLID_473_" class="st3" d="M23.8,4.9C23.8,4.9,23.9,4.8,23.8,4.9c0.5-0.4,0.1-1.2-0.4-1.2c-2.6,0.3-5,2.6-6.3,4.7
			c-0.4,0.6,0.6,1.4,1,0.7c1.1-1.9,3.3-3.9,5.6-4.2c-0.2-0.4-0.3-0.7-0.5-1.1c0,0-0.1,0-0.1,0.1C22.5,4.4,23.3,5.4,23.8,4.9
			L23.8,4.9z"/>
	</g>
</g>
<g id="XMLID_418_">
	<g id="XMLID_476_">
		<path id="XMLID_480_" class="st3" d="M8.9,11.2c1.2-0.7,3.3,0.7,4.3,1.3c1.2,0.7,2.5,1.6,3.1,3c0.2,0.4,1.3-0.2,1.1-0.6
			c-0.8-1.9-3-3.1-4.8-4c-1.2-0.6-2.7-1-4-0.3C7.9,11,8.3,11.6,8.9,11.2L8.9,11.2z"/>
	</g>
</g>
<g id="XMLID_425_">
	<g id="XMLID_483_">
		<path id="XMLID_487_" class="st3" d="M10.2,20.2c-1.2-2.9,3.4-5.5,5.5-6.2c0.7-0.2-0.4-0.1-0.6,0c-1.5,0.5-3,1.3-4.2,2.3
			c-1.2,1-2.5,2.5-1.8,4.2C9.1,20.7,10.2,20.3,10.2,20.2L10.2,20.2z"/>
	</g>
</g>
<g id="XMLID_432_">
	<g id="XMLID_490_">
		<path id="XMLID_494_" class="st3" d="M19.3,20.4c1.3-0.6,0.1-2.3-0.7-2.7c-1.3-0.7-2.7-0.4-3.8,0.5c-0.4,0.3,0.6,1,0.9,0.8
			c0.5-0.4,1-0.7,1.7-0.8c0.3,0,0.8-0.1,1.1,0.2c0.4,0.4,0.3,1-0.1,1.2C18,19.8,18.9,20.6,19.3,20.4L19.3,20.4z"/>
	</g>
</g>
<g id="XMLID_439_">
	<g id="XMLID_497_">
		<path id="XMLID_501_" class="st3" d="M22.4,12.4c-0.1-1.3-2.3-0.3-2.9,0c-0.6,0.3-1.3,0.9-1.5,1.6c-0.3,0.8,0,1.5,0.7,2
			c0.4,0.3,1.4-0.5,0.9-0.8c-0.9-0.7-0.4-1.7,0.5-2.1c0.2-0.1,1.1-0.5,1.2-0.2C21.3,13.5,22.4,12.9,22.4,12.4L22.4,12.4z"/>
	</g>
</g>
<g id="XMLID_446_">
	<g id="XMLID_504_">
		<path id="XMLID_508_" class="st3" d="M4.4,11.4c-0.3,1.3-0.2,2.8,0.7,3.8c1,1.1,2.5,1.3,3.8,1c0.6-0.2-0.3-1-0.7-0.9
			c-1.1,0.3-2.2,0.1-2.6-1.1c-0.3-0.8-0.2-1.6,0-2.4C5.7,11.4,4.6,10.9,4.4,11.4L4.4,11.4z"/>
	</g>
</g>
<g id="XMLID_453_">
	<g id="XMLID_511_">
		<path id="XMLID_515_" class="st3" d="M5.6,19.3c-0.8,0.3,0.3,1.8,0.5,2.1c0.8,1,2,1.3,3.3,1c0.5-0.1,0-1.2-0.5-1.1
			c-0.6,0.1-1.3,0.2-1.8-0.1c-0.1,0-1-0.8-0.9-0.9C6.7,20.2,6.1,19.1,5.6,19.3L5.6,19.3z"/>
	</g>
</g>
<g id="XMLID_460_">
	<g id="XMLID_518_">
		<path id="XMLID_522_" class="st3" d="M13.6,4c-1.8-0.5-3.7-0.7-5.4,0.1c-1.2,0.6-3.5,2.5-2,3.8c0.2,0.2,1.4,0.2,1.1-0.1
			c-1-0.9,0.3-2.3,1.1-2.8c1.4-1,3-1.1,4.6-0.6C13.2,4.4,14.3,4.2,13.6,4L13.6,4z"/>
	</g>
</g>
<g id="XMLID_467_">
	<g id="XMLID_525_">
		<path id="XMLID_529_" class="st3" d="M13.6,4.9c-0.7,0.2-1.1,0.9-1.4,1.4c-0.3,0.4,0.7,1.2,1,0.7c0.3-0.4,0.6-1,1.1-1.1
			C14.8,5.7,14.1,4.7,13.6,4.9L13.6,4.9z"/>
	</g>
</g>
<g id="XMLID_474_">
	<g id="XMLID_532_">
		<path id="XMLID_536_" class="st3" d="M11.3,8.1C10.4,8.6,9.3,8.8,8.4,9c0,0,0.4,0.4,0.5,0.4C9,9.4,9.3,9.7,9.4,9.6
			c1-0.2,2-0.4,2.9-0.9C12.2,8.8,11.5,7.9,11.3,8.1L11.3,8.1z"/>
	</g>
</g>
<g id="XMLID_481_">
	<g id="XMLID_539_">
		<path id="XMLID_543_" class="st3" d="M22,3.7c-0.2,0-0.3,0-0.5,0c0,0,0.1,0.1,0.1,0.2c0,0.1,0.1,0.2,0.1,0.3c0,0.2,0,0.3,0.1,0.5
			C21.8,5,23,5,23,4.8c0-0.5-0.1-1.1-0.7-1.3C22,3.4,21,3.2,20.8,3.6C20.7,3.6,21.8,4,22,3.7L22,3.7z"/>
	</g>
</g>
<g id="XMLID_488_">
	<g id="XMLID_546_">
		<path id="XMLID_550_" class="st4" d="M21.2,11.8C21.2,11.8,21.2,11.8,21.2,11.8c-0.1-0.4-0.2-0.8-0.2-1.2
			c-1.1,0.5-2.5-0.1-3.5-0.7c-0.7-0.4-1,0.7-0.4,1c1.2,0.7,2.9,1.4,4.3,0.8c0.6-0.3,0.3-1.1-0.3-1.2c0,0,0,0,0,0
			C20.4,10.5,20.6,11.7,21.2,11.8L21.2,11.8z"/>
	</g>
</g>
<g id="XMLID_495_">
	<g id="XMLID_553_">
		<path id="XMLID_557_" class="st4" d="M16.9,8.5c-1.3,0.2-2.8,0.7-4,1.2c-0.5,0.2,0.3,1.2,0.7,1c1.2-0.5,2.6-1,3.8-1.1
			C18.1,9.4,17.4,8.4,16.9,8.5L16.9,8.5z"/>
	</g>
</g>
<g id="XMLID_502_">
	<g id="XMLID_560_">
		<path id="XMLID_564_" class="st4" d="M11.1,11.1c-0.6,1-0.6,2.1-0.2,3.2c0.1,0.3,0.4,0.6,0.7,0.5c0.3-0.1,0.5-0.4,0.4-0.7
			c-0.3-0.8-0.3-1.5,0.1-2.3C12.4,11.2,11.5,10.4,11.1,11.1L11.1,11.1z"/>
	</g>
</g>
<g id="XMLID_509_">
	<g id="XMLID_567_">
		<path id="XMLID_571_" class="st4" d="M6.7,13.8c0,1.2,0.4,2.2,1.3,3c0.2,0.2,0.2,0.1,0.1-0.1C8,16.5,7.7,16.2,7.5,16
			c0.1,0.1,0.1,0.2,0.2,0.2c0-0.1-0.1-0.2-0.1-0.3c0-0.1-0.1-0.3-0.1-0.4c0-0.3,0-0.5,0-0.8c0-0.2-0.3-0.5-0.4-0.6
			C7,14,6.7,13.7,6.7,13.8L6.7,13.8z"/>
	</g>
</g>
<g id="XMLID_516_">
	<g id="XMLID_574_">
		<path id="XMLID_578_" class="st4" d="M9.3,17.7c0.7,0.5,1.5,0.6,2.4,0.3c0.2-0.1-0.6-0.9-0.9-0.8c-0.4,0.2-1.1,0.3-1.5,0
			c-0.1-0.1-0.4-0.3-0.5-0.1C8.6,17.3,9.2,17.6,9.3,17.7L9.3,17.7z"/>
	</g>
</g>
<g id="XMLID_523_">
	<g id="XMLID_581_">
		<path id="XMLID_585_" class="st4" d="M14.1,17.5c0.5,0.7,1,1.5,1.8,2c0.9,0.5,1.8,0.3,2.7,0c0.8-0.2,0.2-1.2-0.5-1
			c-0.6,0.2-1.3,0.4-1.8,0c-0.4-0.3-0.8-0.9-1.1-1.3C14.9,16.7,13.7,16.9,14.1,17.5L14.1,17.5z"/>
	</g>
</g>
<g id="XMLID_530_">
	<g id="XMLID_588_">
		<path id="XMLID_592_" class="st3" d="M7.7,9.7c1.1-1.4,2.8-2.1,4.5-2.3c0.8-0.1,0.3-0.7-0.3-0.7C9.9,6.9,7.8,7.6,6.5,9.4
			C6.3,9.8,7.4,10,7.7,9.7L7.7,9.7z"/>
	</g>
</g>
<g id="XMLID_537_">
	<g id="XMLID_595_">
		<path id="XMLID_599_" class="st3" d="M13.7,7.7c0.5,0,1.1,0.1,1.6,0.4c0.3,0.3,0.5,0.8,0.6,1.2c0,0.1,1.2-0.2,1.1-0.5
			c-0.1-0.5-0.3-1-0.7-1.3c-0.5-0.3-1.1-0.3-1.7-0.4c-0.3,0-0.6,0.2-0.8,0.3C13.8,7.5,13.5,7.7,13.7,7.7L13.7,7.7z"/>
	</g>
</g>
<g id="XMLID_544_">
	<g id="XMLID_602_">
		<path id="XMLID_606_" class="st3" d="M20,13.6c0.7,1.1-1.6,2.4-2.3,2.7c-1.2,0.7-2.5,1.1-3.9,1.4c-0.1,0,0.7,0.6,1.1,0.5
			c1.6-0.4,3.2-0.9,4.5-1.8c0.7-0.4,2.3-1.6,1.7-2.5C21,13.7,20,13.5,20,13.6L20,13.6z"/>
	</g>
</g>
<g id="XMLID_551_">
	<g id="XMLID_609_">
		<path id="XMLID_613_" class="st5" d="M17.8,10.6c-1.3,0.3-2.4,1.2-3.3,2.2c-0.7,0.8-1.1,2,0.2,2.4c0.8,0.2,0.7-0.9,0-1.1
			c0,0,0.1,0,0.1,0.1c0,0.1,0,0.3,0,0.4c0.4-1.4,2-2.6,3.4-2.9C19.1,11.5,18.5,10.4,17.8,10.6L17.8,10.6z"/>
	</g>
</g>
<g id="XMLID_558_">
	<g id="XMLID_616_">
		<path id="XMLID_620_" class="st5" d="M15.7,14.1c-0.9-0.2-1.9,0.5-2.7,0.9c-0.6,0.3-1.8,1.1-2.1,0.5c-0.4-0.6,0.2-1.4,0.2-2.1
			c0-0.4-0.1-0.9-0.5-1.2C10,11.7,9.1,12.6,8.5,13c-0.3,0.2,0.5,1.2,0.8,1c0.5-0.4,1.1-0.9,1.7-0.9c-0.2-0.2-0.5-0.4-0.7-0.6
			c0.3,0.6-0.6,2-0.5,2.8c0.1,0.5,0.4,1.1,0.8,1.4c1.7,1.3,3.8-1.8,5.6-1.5C16.7,15.2,16.1,14.2,15.7,14.1L15.7,14.1z"/>
	</g>
</g>
<g id="XMLID_565_">
	<g id="XMLID_623_">
		<path id="XMLID_627_" class="st5" d="M6.6,10.5c0.5-0.6,2.2-2.2,3-2.2C9.4,8.2,9.2,8,9,7.9C8.8,8.7,7.5,10.2,8.4,11
			c1,1,3-0.6,4.1-0.4c-0.1-0.1-0.3-0.2-0.4-0.3c0.2,0.5-0.1,1,0,1.5c0.1,0.4,0.4,0.7,0.8,1c0.5,0.4,1.5-0.4,0.9-0.8
			c-0.7-0.6-0.3-1.3-0.5-2c-0.1-0.2-0.2-0.3-0.4-0.3c-0.5-0.1-0.8-0.1-1.2,0c-0.5,0.1-1.2,0.6-1.6,0.5c-1-0.1,0.1-1.6,0.2-2.3
			c0-0.3-0.3-0.5-0.6-0.5c-1.4,0-3.3,1.8-4,2.8C5.1,10.7,6.2,11.1,6.6,10.5L6.6,10.5z"/>
	</g>
</g>
<g id="XMLID_572_">
	<g id="XMLID_630_">
		<path id="XMLID_634_" class="st5" d="M18.5,3c-0.8-0.1-1.5,0-2.2,0.3c-0.3,0.1-1.7,0.8-1.6,1.3c0,0.2,0.3,0.3,0.5,0.4
			c0.2,0.1,1.4,0.4,0.7,0.2c-0.2-0.1-0.3-0.3-0.5-0.4c-1.4,0.9-3,1.6-4.5,2.4c-0.1,0.1,0.8,0.6,1.1,0.5c1.5-0.8,3.1-1.5,4.5-2.4
			c0.2-0.1-0.5-0.4-0.5-0.4c-0.3-0.1-0.5-0.1-0.8-0.2c0.3,0.1,0.6,0.3,0.8,0.4C15.3,4,19,3.5,19.3,3.5C19.8,3.6,18.7,3,18.5,3
			L18.5,3z"/>
	</g>
</g>
<g id="XMLID_579_">
	<g id="XMLID_637_">
		<path id="XMLID_641_" class="st5" d="M11.5,3.5c-0.3-0.5-1.4,0-1.8,0.2C8.9,4.1,8,4.6,7.4,5.4c0,0,0,0.1,0,0.1
			C8.1,5.9,9.1,5.2,9.7,5C9.5,5,9.3,5,9,5.1c0.3,0-0.6,2-0.7,2.2C8.3,7.4,9.4,7.4,9.5,7.1c0.3-0.7,0.9-1.6,0.8-2.3
			c0,0-0.1-0.1-0.1-0.1C9.4,4.6,8.6,5,7.8,5.3c0.3,0,0.6-0.1,0.9-0.1C8.5,5.1,10,4.1,10.1,4.1C10.2,4,10.4,4,10.5,3.9
			c0.1,0,0.1-0.1,0.2-0.1c0.3-0.1,0.2-0.1-0.4,0C10.5,4.1,11.6,3.6,11.5,3.5L11.5,3.5z"/>
	</g>
</g>
<g id="XMLID_586_">
	<g id="XMLID_644_">
		<path id="XMLID_648_" class="st5" d="M18.9,20.2C18.9,20.2,18.9,20.2,18.9,20.2c0.3,0.1,0.7,0.2,1.1,0.3c0-0.5,0.1-1.3,0.6-1.6
			c0.3-0.2,0.5,0.1,0.8,0.1c0.3,0.1,0.6,0,0.9,0c0.2-0.1,0.4-0.3,0.3-0.5c-0.2-0.2-0.6-0.3-0.8-0.2c-0.1,0-0.4-0.2-0.5-0.2
			c-0.2,0-0.3-0.1-0.5-0.1c-0.4,0-0.8,0.1-1.1,0.3c-0.6,0.4-0.9,1.3-0.9,2c0,0.5,0.9,0.5,1.1,0.3c0,0,0,0,0.1-0.1
			C20.5,20.3,19.3,19.9,18.9,20.2L18.9,20.2z"/>
	</g>
</g>
<g id="XMLID_593_">
	<g id="XMLID_651_">
		<path id="XMLID_655_" class="st6" d="M19.3,12.1c-1.1-0.5-3.4-0.7-4.3,0.4c-0.1,0.1,0,0.4,0.1,0.5c0.5,0.6,1.1,1.1,0.2,1.7
			c-0.6,0.5-1.4,0.7-2.2,0.9c-0.7,0.2,0.2,1.1,0.8,0.9c1-0.3,2.5-0.7,3-1.7c0.6-1-0.2-1.5-0.8-2.2c0,0.2,0.1,0.3,0.1,0.5
			c0.4-0.6,2.2-0.4,2.8-0.2C19.6,13.2,20,12.4,19.3,12.1L19.3,12.1z"/>
	</g>
</g>
<g id="XMLID_600_">
	<g id="XMLID_658_">
		<path id="XMLID_662_" class="st6" d="M7.1,13.5c-1,0.5-1.7,2-1.7,3c0,0.5,0.1,0.8,0.4,1.2c0.1,0.1,0.3,0.3,0.5,0.4
			c0.2,0.1,0.7,0.1,0.8,0.3c0.1,0.2,0.4,0.4,0.7,0.5c0.1,0,0.5,0,0.4-0.3C8,18.3,7.8,18,7.5,17.9c-0.4-0.2-0.9-0.1-0.9-0.7
			c-0.1-1,0.7-2.5,1.6-3C8.5,14,7.5,13.3,7.1,13.5L7.1,13.5z"/>
	</g>
</g>
<g id="XMLID_607_">
	<g id="XMLID_665_">
		<path id="XMLID_669_" class="st6" d="M15.4,20.1c0.5,0,1-0.2,1.5-0.1c0.7,0,0.9,0.6,1.4,0.9c0.6,0.4,1.3,0.5,2,0.3
			c0.8-0.2,0.3-1.2-0.4-1.1c-1.1,0.2-1.3-0.8-2.2-1.1c-0.8-0.3-1.6,0-2.4,0C14.4,19,14.6,20.1,15.4,20.1L15.4,20.1z"/>
	</g>
</g>
<g id="XMLID_614_">
	<g id="XMLID_672_">
		<path id="XMLID_676_" class="st6" d="M21.9,20.6c0.4,0.2,1,0.2,1.3-0.2c0.3-0.3,0.4-0.6,0.4-1c0.1-0.6-1.2-0.4-1.2,0.1
			c0,0.1-0.1,0.2,0,0.3c0,0.1,0,0.1,0.2,0c0.2,0,0.2-0.1,0-0.1C22,19.5,21.2,20.3,21.9,20.6L21.9,20.6z"/>
	</g>
</g>
<g id="XMLID_621_">
	<g id="XMLID_679_">
		<path id="XMLID_683_" class="st6" d="M22.6,15.2c0.3-0.4,0.7-0.8,1-1.2c0.4-0.5-0.7-1.2-1-0.7c-0.3,0.4-0.7,0.8-1,1.2
			C21.2,15.1,22.3,15.7,22.6,15.2L22.6,15.2z"/>
	</g>
</g>
<g id="XMLID_628_">
	<g id="XMLID_686_">
		<path id="XMLID_690_" class="st6" d="M22.9,6.1c0.3-0.6,0-1-0.5-1.4c-0.2-0.2-0.5-0.3-0.8-0.3c-0.3-0.1-0.7,0-1-0.1
			c0.3,0.2,0.5,0.5,0.8,0.7c0-0.3,0.3-0.5,0.3-0.8c0.1-0.2,0-0.4-0.2-0.6c-0.4-0.4-0.9-0.5-1.4-0.5c-0.4,0,0.4,0.8,0.7,0.8
			c0.1,0,0.2,0,0.2,0c0.3,0,0.2,0.2-0.2-0.3c-0.1-0.1-0.1-0.2-0.2-0.3c0.1,0.4-0.4,0.6-0.3,1c0,0.3,0.5,0.6,0.8,0.7
			c0.2,0.1,0.4,0,0.7,0.1c0.1,0,0.3,0,0.4,0c0.3,0.1,0.3,0.1,0,0c-0.2-0.1-0.3,0-0.3,0.1C21.8,5.7,22.8,6.3,22.9,6.1L22.9,6.1z"/>
	</g>
</g>
<g id="XMLID_635_">
	<g id="XMLID_693_">
		<path id="XMLID_697_" class="st6" d="M9.4,3.4C8.3,3.2,6.5,4,5.7,4.8c0.1-0.1,0.9-0.2,1.1-0.3C6.9,4.4,7,4.4,7,4.3
			c0.1-0.1-0.2,0-0.2,0C5.8,4.5,4.8,5,4,5.6c0,0,0,0,0,0C4.5,6,4.9,5.9,5,6.7C5.1,7.1,5,7.6,4.9,8C4.8,8.2,4.6,8.5,4.7,8.7
			c0.1,0.1,0.9-0.3,1-0.3C5.9,8.3,6,8.2,6.1,8.2c0.7-0.3-0.4,0-0.6,0.1C5.3,8.4,5.1,8.5,4.9,8.6c0.3-0.1,0.7-0.2,1-0.3
			C5.7,8.1,6,7.6,6.1,7.4C6.2,7,6.3,6.4,6.2,6C6,5.6,5.7,5.6,5.5,5.3C5.3,5.1,5.1,5.6,5.6,5.1c0,0,0.8-0.7,0.2-0.3
			c0.4-0.1,0.7-0.2,1.1-0.3c0.3-0.4,0.9-0.7,1.4-0.6C8.6,3.9,9.2,3.3,9.4,3.4L9.4,3.4z"/>
	</g>
</g>
</svg>
