<?xml version="1.0" encoding="utf-8"?>
<!-- Generator: Adobe Illustrator 19.0.0, SVG Export Plug-In . SVG Version: 6.00 Build 0)  -->
<svg version="1.1" id="Layer_1" xmlns="http://www.w3.org/2000/svg" xmlns:xlink="http://www.w3.org/1999/xlink" x="0px" y="0px"
	 viewBox="-92.2 -69 55.7 54" style="enable-background:new -92.2 -69 55.7 54;" xml:space="preserve">
<style type="text/css">
	.st0{fill:#FFFFFF;}
	.st1{fill:#00ACD0;}
	.st2{fill:#21A5DE;}
	.st3{fill:#231F20;}
</style>
<ellipse class="st0" cx="-64.6" cy="-47.7" rx="12.3" ry="11.9"/>
<g>
	<g>
		<path class="st1" d="M-49.6-50.4c0.5,2.5,0.3,4.9-0.2,7.4c-0.8,3.7-2.1,7.1-4.1,10.1c-2.8,4.5-6.1,8.3-10.1,11.5
			c-0.2,0.2-0.3,0.2-0.3,0.2s-0.2,0-0.3-0.2c-4.8-4-8.8-8.6-11.7-14.1c-1.5-2.9-2.6-6.1-2.9-9.5c-0.2-0.8-0.2-1.7-0.2-2.5
			c-0.3-6.6,4.3-12.9,10.7-14.7c1.4-0.5,2.8-0.6,4.1-0.6C-57.2-62.8-51-57.7-49.6-50.4z M-52.8-47.5c0-6.8-5.2-12.1-11.8-12.1
			c-6.4,0-11.8,5.4-11.8,11.8c0,6.6,5.2,12,11.8,12C-58.2-35.6-52.8-41-52.8-47.5z"/>
	</g>
</g>
<g>
	<g>
		<path class="st2" d="M-58.2-47.7c0,0.8,0,1.7,0,2.5c0,0.5-0.2,0.6-0.6,0.6c-0.2,0-0.3,0-0.3,0c-0.3,0-0.5-0.2-0.5-0.5
			c0-1.8,0-3.5,0-5.2c0-0.3,0.2-0.5,0.5-0.5c0.9,0,1.1,0,1.1,0.9C-58.2-49.2-58.2-48.4-58.2-47.7z"/>
	</g>
</g>
<g>
	<g>
		<path class="st3" d="M-61.3-50.2c0,1.7,0,3.4,0,5.1c0,0.5-0.2,0.6-0.6,0.6c-0.2,0-0.2,0-0.3,0c-0.5,0-0.6,0-0.6-0.6
			c0-0.9,0-1.7,0-2.6s0-1.7,0-2.6c0-0.3,0.2-0.6,0.5-0.5c0.2,0,0.3,0,0.3,0C-61.4-50.8-61.3-50.7-61.3-50.2z"/>
	</g>
</g>
<g>
	<g>
		<path class="st3" d="M-56.7-42c0,0.8,0,0.8-0.6,0.8c-4.8,0-9.5,0-14.1,0c-0.5,0-0.6,0-0.6-0.6c0-0.9,0-0.9,0.9-0.9
			c2.3,0,4.6,0,6.9,0c2.3,0,4.8,0,7.1,0C-56.8-42.7-56.7-42.7-56.7-42z"/>
	</g>
</g>
<g>
	<g>
		<path class="st3" d="M-58.3-52.9c0.5,0,0.6,0.2,0.6,0.6c0,0.3-0.2,0.5-0.5,0.5c-1.7,0-3.4,0-4.9,0c-0.5,0-0.8,0-1.2,0
			c-2,0-4.1,0-6.1,0c-0.5,0-0.6-0.2-0.6-0.6s0.2-0.5,0.6-0.5C-66.4-52.9-62.3-52.9-58.3-52.9z"/>
	</g>
</g>
<g>
	<g>
		<path class="st3" d="M-58.2-53.5L-58.2-53.5c-4.3,0-8.4,0-12.7,0c0.2-0.2,0.3-0.2,0.3-0.2c2-0.8,3.8-1.7,5.8-2.5
			c0.2,0,0.5-0.2,0.6,0C-62.3-55.3-60.2-54.4-58.2-53.5z"/>
	</g>
</g>
<g>
	<g>
		<path class="st3" d="M-65.3-47.8c0,0.9,0,1.7,0,2.6c0,0.5-0.2,0.6-0.6,0.6c-0.2,0-0.3,0-0.5,0c-0.3,0-0.5-0.2-0.5-0.5
			c0-1.8,0-3.5,0-5.4c0-0.3,0.2-0.5,0.5-0.5c0.9,0,0.9,0,0.9,0.9C-65.3-49.3-65.3-48.5-65.3-47.8z"/>
	</g>
</g>
<g>
	<g>
		<path class="st2" d="M-68.3-50.3c0,1.7,0,3.4,0,5.2c0,0.5-0.2,0.6-0.6,0.6h-0.2c-0.6,0-0.6,0-0.6-0.6c0-0.9,0-1.7,0-2.6
			c0-0.8,0-1.5,0-2.3c0-0.6,0-0.8,0.8-0.8c0.2,0,0.2,0,0.3,0C-68.5-51-68.3-50.8-68.3-50.3z"/>
	</g>
</g>
</svg>
