<?xml version="1.0" encoding="utf-8"?>
<!-- Generator: Adobe Illustrator 19.0.0, SVG Export Plug-In . SVG Version: 6.00 Build 0)  -->
<svg version="1.1" id="Layer_1" xmlns="http://www.w3.org/2000/svg" xmlns:xlink="http://www.w3.org/1999/xlink" x="0px" y="0px"
	 viewBox="-451 254 55.7 54" style="enable-background:new -451 254 55.7 54;" xml:space="preserve">
<style type="text/css">
	.st0{fill:#FFFFFF;}
	.st1{fill:#00ACD0;}
	.st2{fill:#21A5DE;}
	.st3{fill:#231F20;}
</style>
<g>
	<ellipse class="st0" cx="-423.3" cy="276.5" rx="9.8" ry="9.5"/>
	<g>
		<g>
			<path class="st1" d="M-411.4,274.4c0.5,2,0.3,3.8-0.2,5.8c-0.6,2.9-1.7,5.6-3.2,7.9c-2.3,3.5-4.9,6.6-7.9,9.2
				c-0.2,0.2-0.3,0.2-0.3,0.2s-0.2,0-0.3-0.2c-3.8-3.2-7-6.9-9.3-11.1c-1.2-2.3-2-4.9-2.3-7.5c-0.2-0.6-0.2-1.4-0.2-2
				c-0.3-5.2,3.4-10.2,8.5-11.6c1.1-0.5,2.3-0.5,3.2-0.5C-417.5,264.6-412.6,268.6-411.4,274.4z M-414,276.7c0-5.3-4.1-9.6-9.3-9.6
				c-5,0-9.3,4.3-9.3,9.3c0,5.2,4.1,9.5,9.3,9.5C-418.2,286.1-414,281.9-414,276.7z"/>
		</g>
	</g>
	<g>
		<g>
			<path class="st2" d="M-418.2,276.5c0,0.6,0,1.4,0,2c0,0.5-0.2,0.5-0.5,0.5c-0.2,0-0.3,0-0.3,0c-0.3,0-0.5-0.2-0.5-0.5
				c0-1.4,0-2.7,0-4.1c0-0.3,0.2-0.5,0.5-0.5c0.8,0,0.9,0,0.9,0.8C-418.2,275.4-418.2,276-418.2,276.5z"/>
		</g>
	</g>
	<g>
		<g>
			<path class="st3" d="M-420.7,274.5c0,1.4,0,2.7,0,4c0,0.5-0.2,0.5-0.5,0.5c-0.2,0-0.2,0-0.3,0c-0.5,0-0.5,0-0.5-0.5
				c0-0.8,0-1.4,0-2.1c0-0.8,0-1.4,0-2c0-0.3,0.2-0.5,0.5-0.5c0.2,0,0.3,0,0.3,0C-420.8,274.1-420.7,274.2-420.7,274.5z"/>
		</g>
	</g>
	<g>
		<g>
			<path class="st3" d="M-417,281.1c0,0.6,0,0.6-0.5,0.6c-3.8,0-7.5,0-11.1,0c-0.5,0-0.5,0-0.5-0.5c0-0.8,0-0.8,0.8-0.8
				c1.8,0,3.7,0,5.5,0c1.8,0,3.8,0,5.6,0C-417.2,280.5-417,280.5-417,281.1z"/>
		</g>
	</g>
	<g>
		<g>
			<path class="st3" d="M-418.4,272.4c0.5,0,0.5,0.2,0.5,0.5s-0.2,0.5-0.5,0.5c-1.4,0-2.7,0-3.8,0c-0.5,0-0.6,0-0.9,0
				c-1.5,0-3.2,0-4.9,0c-0.5,0-0.5-0.2-0.5-0.5s0.2-0.5,0.5-0.5C-424.8,272.4-421.4,272.4-418.4,272.4z"/>
		</g>
	</g>
	<g>
		<g>
			<path class="st3" d="M-418.2,271.9L-418.2,271.9c-3.4,0-6.7,0-10.1,0c0.2-0.2,0.3-0.2,0.3-0.2c1.5-0.6,3.1-1.4,4.6-2
				c0.2,0,0.5-0.2,0.5,0C-421.4,270.5-419.9,271.3-418.2,271.9z"/>
		</g>
	</g>
	<g>
		<g>
			<path class="st3" d="M-423.9,276.5c0,0.8,0,1.4,0,2.1c0,0.5-0.2,0.5-0.5,0.5c-0.2,0-0.3,0-0.5,0c-0.3,0-0.5-0.2-0.5-0.5
				c0-1.4,0-2.7,0-4.3c0-0.3,0.2-0.5,0.5-0.5c0.8,0,0.8,0,0.8,0.8C-423.9,275.3-423.9,275.9-423.9,276.5z"/>
		</g>
	</g>
	<g>
		<g>
			<path class="st2" d="M-426.3,274.5c0,1.4,0,2.7,0,4.1c0,0.5-0.2,0.5-0.5,0.5h-0.2c-0.5,0-0.5,0-0.5-0.5c0-0.8,0-1.4,0-2.1
				c0-0.6,0-1.2,0-1.8c0-0.5,0-0.6,0.6-0.6c0.2,0,0.2,0,0.3,0C-426.5,273.9-426.3,274.1-426.3,274.5z"/>
		</g>
	</g>
</g>
</svg>
