<?xml version="1.0" encoding="utf-8"?>
<!-- Generator: Adobe Illustrator 19.0.0, SVG Export Plug-In . SVG Version: 6.00 Build 0)  -->
<svg version="1.1" id="Layer_1" xmlns="http://www.w3.org/2000/svg" xmlns:xlink="http://www.w3.org/1999/xlink" x="0px" y="0px"
	 viewBox="-451 254 55.7 54" style="enable-background:new -451 254 55.7 54;" xml:space="preserve">
<style type="text/css">
	.st0{fill:#FFFFFF;}
	.st1{fill:#A62513;}
	.st2{fill:#231F20;}
</style>
<g>
	<ellipse class="st0" cx="-423.3" cy="276.3" rx="10.1" ry="9.8"/>
	<g>
		<g>
			<path class="st1" d="M-411,274.1c0.5,2,0.3,3.9-0.2,6c-0.6,3-1.7,5.8-3.3,8.2c-2.4,3.6-5,6.8-8.2,9.5c-0.2,0.2-0.3,0.2-0.3,0.2
				s-0.2,0-0.3-0.2c-3.9-3.3-7.3-7.1-9.6-11.5c-1.3-2.4-2.2-5-2.4-7.7c-0.2-0.6-0.2-1.4-0.2-2c-0.3-5.4,3.5-10.6,8.8-12
				c1.1-0.5,2.4-0.5,3.3-0.5C-417.3,263.8-412.3,268.1-411,274.1z M-413.7,276.5c0-5.5-4.3-9.9-9.6-9.9c-5.2,0-9.6,4.4-9.6,9.6
				c0,5.4,4.3,9.8,9.6,9.8C-418.1,286.2-413.7,281.8-413.7,276.5z"/>
		</g>
	</g>
	<g>
		<g>
			<path class="st1" d="M-418.1,276.3c0,0.6,0,1.4,0,2c0,0.5-0.2,0.5-0.5,0.5c-0.2,0-0.3,0-0.3,0c-0.3,0-0.5-0.2-0.5-0.5
				c0-1.4,0-2.8,0-4.3c0-0.3,0.2-0.5,0.5-0.5c0.8,0,0.9,0,0.9,0.8C-418.1,275-418.1,275.7-418.1,276.3z"/>
		</g>
	</g>
	<g>
		<g>
			<path class="st2" d="M-420.6,274.2c0,1.4,0,2.8,0,4.1c0,0.5-0.2,0.5-0.5,0.5c-0.2,0-0.2,0-0.3,0c-0.5,0-0.5,0-0.5-0.5
				c0-0.8,0-1.4,0-2.2s0-1.4,0-2.2c0-0.3,0.2-0.5,0.5-0.5c0.2,0,0.3,0,0.3,0C-420.8,273.8-420.6,273.8-420.6,274.2z"/>
		</g>
	</g>
	<g>
		<g>
			<path class="st2" d="M-416.8,281c0,0.6,0,0.6-0.5,0.6c-3.9,0-7.7,0-11.5,0c-0.5,0-0.5,0-0.5-0.5c0-0.8,0-0.8,0.8-0.8
				c1.9,0,3.8,0,5.7,0c1.9,0,3.9,0,5.8,0C-417,280.4-416.8,280.4-416.8,281z"/>
		</g>
	</g>
	<g>
		<g>
			<path class="st2" d="M-418.2,272c0.5,0,0.5,0.2,0.5,0.5s-0.2,0.5-0.5,0.5c-1.4,0-2.8,0-3.9,0c-0.5,0-0.6,0-0.9,0
				c-1.6,0-3.3,0-5,0c-0.5,0-0.5-0.2-0.5-0.5s0.2-0.5,0.5-0.5C-424.9,272-421.4,272-418.2,272z"/>
		</g>
	</g>
	<g>
		<g>
			<path class="st2" d="M-418.1,271.6L-418.1,271.6c-3.5,0-6.9,0-10.4,0c0.2-0.2,0.3-0.2,0.3-0.2c1.6-0.6,3.2-1.4,4.7-2
				c0.2,0,0.5-0.2,0.5,0C-421.4,270-419.8,270.8-418.1,271.6z"/>
		</g>
	</g>
	<g>
		<g>
			<path class="st2" d="M-423.9,276.1c0,0.8,0,1.4,0,2.2c0,0.5-0.2,0.5-0.5,0.5c-0.2,0-0.3,0-0.5,0c-0.3,0-0.5-0.2-0.5-0.5
				c0-1.4,0-2.8,0-4.4c0-0.3,0.2-0.5,0.5-0.5c0.8,0,0.8,0,0.8,0.8C-423.9,275-423.9,275.7-423.9,276.1z"/>
		</g>
	</g>
	<g>
		<g>
			<path class="st1" d="M-426.4,274.1c0,1.4,0,2.8,0,4.3c0,0.5-0.2,0.5-0.5,0.5h-0.2c-0.5,0-0.5,0-0.5-0.5c0-0.8,0-1.4,0-2.2
				c0-0.6,0-1.3,0-1.9c0-0.5,0-0.6,0.6-0.6c0.2,0,0.2,0,0.3,0C-426.6,273.6-426.4,273.8-426.4,274.1z"/>
		</g>
	</g>
</g>
</svg>
