<?xml version="1.0" encoding="utf-8"?>
<!-- Generator: Adobe Illustrator 19.0.0, SVG Export Plug-In . SVG Version: 6.00 Build 0)  -->
<svg version="1.1" id="Layer_1" xmlns="http://www.w3.org/2000/svg" xmlns:xlink="http://www.w3.org/1999/xlink" x="0px" y="0px"
	 viewBox="-277 370 55.7 54" style="enable-background:new -277 370 55.7 54;" xml:space="preserve">
<style type="text/css">
	.st0{fill:#FFFFFF;}
	.st1{fill:#A62513;}
	.st2{fill:#231F20;}
</style>
<g>
	<ellipse class="st0" cx="-249.3" cy="392.3" rx="10.1" ry="9.8"/>
	<g>
		<g>
			<path class="st1" d="M-237,390.1c0.5,2,0.3,3.9-0.2,6c-0.6,3-1.7,5.8-3.3,8.2c-2.4,3.6-5,6.8-8.2,9.5c-0.2,0.2-0.3,0.2-0.3,0.2
				s-0.2,0-0.3-0.2c-3.9-3.3-7.3-7.1-9.6-11.5c-1.3-2.4-2.2-5-2.4-7.7c-0.2-0.6-0.2-1.4-0.2-2c-0.3-5.4,3.5-10.6,8.8-12
				c1.1-0.5,2.4-0.5,3.3-0.5C-243.3,379.8-238.3,384.1-237,390.1z M-239.7,392.5c0-5.5-4.3-9.9-9.6-9.9c-5.2,0-9.6,4.4-9.6,9.6
				c0,5.4,4.3,9.8,9.6,9.8C-244.1,402.2-239.7,397.8-239.7,392.5z"/>
		</g>
	</g>
	<g>
		<g>
			<path class="st1" d="M-244.1,392.3c0,0.6,0,1.4,0,2c0,0.5-0.2,0.5-0.5,0.5c-0.2,0-0.3,0-0.3,0c-0.3,0-0.5-0.2-0.5-0.5
				c0-1.4,0-2.8,0-4.3c0-0.3,0.2-0.5,0.5-0.5c0.8,0,0.9,0,0.9,0.8C-244.1,391-244.1,391.7-244.1,392.3z"/>
		</g>
	</g>
	<g>
		<g>
			<path class="st2" d="M-246.6,390.2c0,1.4,0,2.8,0,4.1c0,0.5-0.2,0.5-0.5,0.5c-0.2,0-0.2,0-0.3,0c-0.5,0-0.5,0-0.5-0.5
				c0-0.8,0-1.4,0-2.2s0-1.4,0-2.2c0-0.3,0.2-0.5,0.5-0.5c0.2,0,0.3,0,0.3,0C-246.8,389.8-246.6,389.8-246.6,390.2z"/>
		</g>
	</g>
	<g>
		<g>
			<path class="st2" d="M-242.8,397c0,0.6,0,0.6-0.5,0.6c-3.9,0-7.7,0-11.5,0c-0.5,0-0.5,0-0.5-0.5c0-0.8,0-0.8,0.8-0.8
				c1.9,0,3.8,0,5.7,0s3.9,0,5.8,0C-243,396.4-242.8,396.4-242.8,397z"/>
		</g>
	</g>
	<g>
		<g>
			<path class="st2" d="M-244.2,388c0.5,0,0.5,0.2,0.5,0.5s-0.2,0.5-0.5,0.5c-1.4,0-2.8,0-3.9,0c-0.5,0-0.6,0-0.9,0
				c-1.6,0-3.3,0-5,0c-0.5,0-0.5-0.2-0.5-0.5s0.2-0.5,0.5-0.5C-250.9,388-247.4,388-244.2,388z"/>
		</g>
	</g>
	<g>
		<g>
			<path class="st2" d="M-244.1,387.6L-244.1,387.6c-3.5,0-6.9,0-10.4,0c0.2-0.2,0.3-0.2,0.3-0.2c1.6-0.6,3.2-1.4,4.7-2
				c0.2,0,0.5-0.2,0.5,0C-247.4,386-245.8,386.8-244.1,387.6z"/>
		</g>
	</g>
	<g>
		<g>
			<path class="st2" d="M-249.9,392.1c0,0.8,0,1.4,0,2.2c0,0.5-0.2,0.5-0.5,0.5c-0.2,0-0.3,0-0.5,0c-0.3,0-0.5-0.2-0.5-0.5
				c0-1.4,0-2.8,0-4.4c0-0.3,0.2-0.5,0.5-0.5c0.8,0,0.8,0,0.8,0.8C-249.9,391-249.9,391.7-249.9,392.1z"/>
		</g>
	</g>
	<g>
		<g>
			<path class="st1" d="M-252.4,390.1c0,1.4,0,2.8,0,4.3c0,0.5-0.2,0.5-0.5,0.5h-0.2c-0.5,0-0.5,0-0.5-0.5c0-0.8,0-1.4,0-2.2
				c0-0.6,0-1.3,0-1.9c0-0.5,0-0.6,0.6-0.6c0.2,0,0.2,0,0.3,0C-252.6,389.6-252.4,389.8-252.4,390.1z"/>
		</g>
	</g>
</g>
</svg>
