<?xml version="1.0" encoding="utf-8"?>
<!-- Generator: Adobe Illustrator 19.0.0, SVG Export Plug-In . SVG Version: 6.00 Build 0)  -->
<svg version="1.1" id="Layer_1" xmlns="http://www.w3.org/2000/svg" xmlns:xlink="http://www.w3.org/1999/xlink" x="0px" y="0px"
	 viewBox="-451 254 55.7 54" style="enable-background:new -451 254 55.7 54;" xml:space="preserve">
<style type="text/css">
	.st0{fill:#FFFFFF;}
	.st1{fill:#00A450;}
	.st2{fill:#231F20;}
</style>
<g>
	<ellipse class="st0" cx="-421.2" cy="276.5" rx="9.8" ry="9.4"/>
	<g>
		<g>
			<path class="st1" d="M-409.4,274.4c0.4,1.9,0.3,3.9-0.2,5.8c-0.6,3-1.7,5.7-3.3,7.9c-2.2,3.6-4.8,6.6-8,9.2
				c-0.2,0.2-0.3,0.2-0.3,0.2s-0.2,0-0.3-0.2c-3.8-3.2-7.1-6.8-9.3-11.2c-1.2-2.2-2.1-4.8-2.2-7.5c-0.1-0.6-0.1-1.3-0.1-1.9
				c-0.3-5.2,3.5-10.2,8.5-11.7c1-0.5,2.2-0.5,3.3-0.5C-415.4,264.5-410.4,268.5-409.4,274.4z M-411.8,276.7c0-5.4-4.2-9.6-9.3-9.6
				s-9.3,4.4-9.3,9.3c0,5.2,4.2,9.4,9.3,9.4C-416.1,286.1-411.8,281.7-411.8,276.7z"/>
		</g>
	</g>
	<g>
		<g>
			<path class="st1" d="M-416.1,276.5c0,0.6,0,1.3,0,1.9c0,0.5-0.2,0.5-0.5,0.5c-0.2,0-0.3,0-0.3,0c-0.3,0-0.5-0.2-0.5-0.5
				c0-1.5,0-2.8,0-4.2c0-0.3,0.2-0.5,0.5-0.5c0.8,0,0.9,0,0.9,0.8C-416.1,275.3-416.1,275.9-416.1,276.5z"/>
		</g>
	</g>
	<g>
		<g>
			<path class="st2" d="M-418.5,274.5c0,1.4,0,2.7,0,4.1c0,0.4-0.2,0.4-0.5,0.4c-0.2,0-0.2,0-0.3,0c-0.5,0-0.5,0-0.5-0.4
				c0-0.8,0-1.3,0-2.1c0-0.8,0-1.4,0-2.1c0-0.3,0.2-0.4,0.5-0.4c0.2,0,0.3,0,0.3,0C-418.7,273.9-418.5,274.1-418.5,274.5z"/>
		</g>
	</g>
	<g>
		<g>
			<path class="st2" d="M-414.9,281c0,0.6,0,0.6-0.5,0.6c-3.8,0-7.5,0-11.2,0c-0.5,0-0.5,0-0.5-0.4c0-0.8,0-0.8,0.8-0.8
				c1.8,0,3.6,0,5.4,0c1.8,0,3.8,0,5.7,0C-415.1,280.4-414.9,280.4-414.9,281z"/>
		</g>
	</g>
	<g>
		<g>
			<path class="st2" d="M-416.3,272.3c0.5,0,0.5,0.2,0.5,0.5s-0.2,0.4-0.5,0.4c-1.3,0-2.7,0-3.9,0c-0.5,0-0.6,0-0.9,0
				c-1.6,0-3.3,0-4.8,0c-0.5,0-0.5-0.1-0.5-0.4s0.2-0.5,0.5-0.5C-422.6,272.3-419.4,272.3-416.3,272.3z"/>
		</g>
	</g>
	<g>
		<g>
			<path class="st2" d="M-416.1,271.8L-416.1,271.8c-3.5,0-6.6,0-10,0c0.1-0.2,0.3-0.2,0.3-0.2c1.6-0.6,3-1.3,4.6-1.9
				c0.2,0,0.5-0.2,0.5,0C-419.4,270.5-417.8,271.1-416.1,271.8z"/>
		</g>
	</g>
	<g>
		<g>
			<path class="st2" d="M-421.8,276.3c0,0.8,0,1.3,0,2.1c0,0.5-0.2,0.5-0.5,0.5c-0.2,0-0.3,0-0.5,0c-0.3,0-0.5-0.2-0.5-0.5
				c0-1.5,0-2.8,0-4.3c0-0.3,0.2-0.4,0.5-0.4c0.8,0,0.8,0,0.8,0.8C-421.8,275.2-421.8,275.9-421.8,276.3z"/>
		</g>
	</g>
	<g>
		<g>
			<path class="st1" d="M-424.1,274.4c0,1.3,0,2.7,0,4.2c0,0.5-0.2,0.5-0.5,0.5h-0.2c-0.5,0-0.5,0-0.5-0.5c0-0.8,0-1.3,0-2.1
				c0-0.6,0-1.2,0-1.8c0-0.4,0-0.6,0.6-0.6c0.1,0,0.1,0,0.3,0C-424.2,273.8-424.1,273.9-424.1,274.4z"/>
		</g>
	</g>
</g>
</svg>
