<?xml version="1.0" encoding="utf-8"?>
<!-- Generator: Adobe Illustrator 19.0.0, SVG Export Plug-In . SVG Version: 6.00 Build 0)  -->
<svg version="1.1" id="Layer_1" xmlns="http://www.w3.org/2000/svg" xmlns:xlink="http://www.w3.org/1999/xlink" x="0px" y="0px"
	 viewBox="14 -13 55.7 54" style="enable-background:new 14 -13 55.7 54;" xml:space="preserve">
<style type="text/css">
	.st0{fill:#FFFFFF;}
	.st1{fill:#00A450;}
	.st2{fill:#231F20;}
</style>
<ellipse class="st0" cx="41.6" cy="8.3" rx="12.3" ry="11.9"/>
<g>
	<g>
		<path class="st1" d="M56.6,5.6c0.5,2.5,0.3,4.9-0.2,7.4c-0.8,3.7-2.1,7.1-4.1,10.1c-2.8,4.5-6.1,8.3-10.1,11.5
			c-0.2,0.2-0.3,0.2-0.3,0.2s-0.2,0-0.3-0.2c-4.8-4-8.8-8.6-11.7-14.1c-1.5-2.9-2.6-6.1-2.9-9.5c-0.2-0.8-0.2-1.7-0.2-2.5
			C26.5,1.9,31.1-4.4,37.5-6.2c1.4-0.5,2.8-0.6,4.1-0.6C49-6.8,55.2-1.7,56.6,5.6z M53.4,8.5c0-6.8-5.2-12.1-11.8-12.1
			c-6.4,0-11.8,5.4-11.8,11.8c0,6.6,5.2,12,11.8,12C48,20.4,53.4,15,53.4,8.5z"/>
	</g>
</g>
<g>
	<g>
		<path class="st1" d="M48,8.3c0,0.8,0,1.7,0,2.5c0,0.5-0.2,0.6-0.6,0.6c-0.2,0-0.3,0-0.3,0c-0.3,0-0.5-0.2-0.5-0.5
			c0-1.8,0-3.5,0-5.2c0-0.3,0.2-0.5,0.5-0.5c0.9,0,1.1,0,1.1,0.9C48,6.8,48,7.6,48,8.3z"/>
	</g>
</g>
<g>
	<g>
		<path class="st2" d="M44.9,5.8c0,1.7,0,3.4,0,5.1c0,0.5-0.2,0.6-0.6,0.6c-0.2,0-0.2,0-0.3,0c-0.5,0-0.6,0-0.6-0.6
			c0-0.9,0-1.7,0-2.6s0-1.7,0-2.6c0-0.3,0.2-0.6,0.5-0.5c0.2,0,0.3,0,0.3,0C44.8,5.2,44.9,5.3,44.9,5.8z"/>
	</g>
</g>
<g>
	<g>
		<path class="st2" d="M49.5,14c0,0.8,0,0.8-0.6,0.8c-4.8,0-9.5,0-14.1,0c-0.5,0-0.6,0-0.6-0.6c0-0.9,0-0.9,0.9-0.9
			c2.3,0,4.6,0,6.9,0c2.3,0,4.8,0,7.1,0C49.4,13.3,49.5,13.3,49.5,14z"/>
	</g>
</g>
<g>
	<g>
		<path class="st2" d="M47.9,3.1c0.5,0,0.6,0.2,0.6,0.6c0,0.3-0.2,0.5-0.5,0.5c-1.7,0-3.4,0-4.9,0c-0.5,0-0.8,0-1.2,0
			c-2,0-4.1,0-6.1,0c-0.5,0-0.6-0.2-0.6-0.6s0.2-0.5,0.6-0.5C39.8,3.1,43.9,3.1,47.9,3.1z"/>
	</g>
</g>
<g>
	<g>
		<path class="st2" d="M48,2.5L48,2.5c-4.3,0-8.4,0-12.7,0c0.2-0.2,0.3-0.2,0.3-0.2c2-0.8,3.8-1.7,5.8-2.5c0.2,0,0.5-0.2,0.6,0
			C43.9,0.7,46,1.6,48,2.5z"/>
	</g>
</g>
<g>
	<g>
		<path class="st2" d="M40.9,8.2c0,0.9,0,1.7,0,2.6c0,0.5-0.2,0.6-0.6,0.6c-0.2,0-0.3,0-0.5,0c-0.3,0-0.5-0.2-0.5-0.5
			c0-1.8,0-3.5,0-5.4c0-0.3,0.2-0.5,0.5-0.5c0.9,0,0.9,0,0.9,0.9C40.9,6.7,40.9,7.5,40.9,8.2z"/>
	</g>
</g>
<g>
	<g>
		<path class="st1" d="M37.9,5.7c0,1.7,0,3.4,0,5.2c0,0.5-0.2,0.6-0.6,0.6h-0.2c-0.6,0-0.6,0-0.6-0.6c0-0.9,0-1.7,0-2.6
			c0-0.8,0-1.5,0-2.3c0-0.6,0-0.8,0.8-0.8c0.2,0,0.2,0,0.3,0C37.7,5,37.9,5.2,37.9,5.7z"/>
	</g>
</g>
</svg>
