<?xml version="1.0" encoding="utf-8"?>
<!-- Generator: Adobe Illustrator 19.0.0, SVG Export Plug-In . SVG Version: 6.00 Build 0)  -->
<svg version="1.1" id="Layer_1" xmlns="http://www.w3.org/2000/svg" xmlns:xlink="http://www.w3.org/1999/xlink" x="0px" y="0px"
	 viewBox="-277 370 55.7 54" style="enable-background:new -277 370 55.7 54;" xml:space="preserve">
<style type="text/css">
	.st0{fill:#FFFFFF;}
	.st1{fill:#00A450;}
	.st2{fill:#231F20;}
</style>
<g>
	<ellipse class="st0" cx="-249.2" cy="388.1" rx="9.8" ry="9.4"/>
	<g>
		<g>
			<path class="st1" d="M-237.4,386c0.4,1.9,0.3,3.9-0.2,5.8c-0.6,3-1.7,5.7-3.3,7.9c-2.2,3.6-4.8,6.6-8,9.2
				c-0.2,0.2-0.3,0.2-0.3,0.2s-0.2,0-0.3-0.2c-3.8-3.2-7.1-6.8-9.3-11.2c-1.2-2.2-2.1-4.8-2.2-7.5c-0.1-0.6-0.1-1.3-0.1-1.9
				c-0.3-5.2,3.5-10.2,8.5-11.7c1-0.5,2.2-0.5,3.3-0.5C-243.4,376.1-238.4,380.1-237.4,386z M-239.8,388.3c0-5.4-4.2-9.6-9.3-9.6
				s-9.3,4.4-9.3,9.3c0,5.2,4.2,9.4,9.3,9.4C-244.1,397.7-239.8,393.3-239.8,388.3z"/>
		</g>
	</g>
	<g>
		<g>
			<path class="st1" d="M-244.1,388.1c0,0.6,0,1.3,0,1.9c0,0.5-0.2,0.5-0.5,0.5c-0.2,0-0.3,0-0.3,0c-0.3,0-0.5-0.2-0.5-0.5
				c0-1.5,0-2.8,0-4.2c0-0.3,0.2-0.5,0.5-0.5c0.8,0,0.9,0,0.9,0.8C-244.1,386.9-244.1,387.5-244.1,388.1z"/>
		</g>
	</g>
	<g>
		<g>
			<path class="st2" d="M-246.5,386.1c0,1.4,0,2.7,0,4.1c0,0.4-0.2,0.4-0.5,0.4c-0.2,0-0.2,0-0.3,0c-0.5,0-0.5,0-0.5-0.4
				c0-0.8,0-1.3,0-2.1s0-1.4,0-2.1c0-0.3,0.2-0.4,0.5-0.4c0.2,0,0.3,0,0.3,0C-246.7,385.5-246.5,385.7-246.5,386.1z"/>
		</g>
	</g>
	<g>
		<g>
			<path class="st2" d="M-242.9,392.6c0,0.6,0,0.6-0.5,0.6c-3.8,0-7.5,0-11.2,0c-0.5,0-0.5,0-0.5-0.4c0-0.8,0-0.8,0.8-0.8
				c1.8,0,3.6,0,5.4,0c1.8,0,3.8,0,5.7,0C-243.1,392-242.9,392-242.9,392.6z"/>
		</g>
	</g>
	<g>
		<g>
			<path class="st2" d="M-244.3,383.9c0.5,0,0.5,0.2,0.5,0.5s-0.2,0.4-0.5,0.4c-1.3,0-2.7,0-3.9,0c-0.5,0-0.6,0-0.9,0
				c-1.6,0-3.3,0-4.8,0c-0.5,0-0.5-0.1-0.5-0.4s0.2-0.5,0.5-0.5C-250.6,383.9-247.4,383.9-244.3,383.9z"/>
		</g>
	</g>
	<g>
		<g>
			<path class="st2" d="M-244.1,383.4L-244.1,383.4c-3.5,0-6.6,0-10,0c0.1-0.2,0.3-0.2,0.3-0.2c1.6-0.6,3-1.3,4.6-1.9
				c0.2,0,0.5-0.2,0.5,0C-247.4,382.1-245.8,382.7-244.1,383.4z"/>
		</g>
	</g>
	<g>
		<g>
			<path class="st2" d="M-249.8,387.9c0,0.8,0,1.3,0,2.1c0,0.5-0.2,0.5-0.5,0.5c-0.2,0-0.3,0-0.5,0c-0.3,0-0.5-0.2-0.5-0.5
				c0-1.5,0-2.8,0-4.3c0-0.3,0.2-0.4,0.5-0.4c0.8,0,0.8,0,0.8,0.8C-249.8,386.8-249.8,387.5-249.8,387.9z"/>
		</g>
	</g>
	<g>
		<g>
			<path class="st1" d="M-252.1,386c0,1.3,0,2.7,0,4.2c0,0.5-0.2,0.5-0.5,0.5h-0.2c-0.5,0-0.5,0-0.5-0.5c0-0.8,0-1.3,0-2.1
				c0-0.6,0-1.2,0-1.8c0-0.4,0-0.6,0.6-0.6c0.1,0,0.1,0,0.3,0C-252.2,385.4-252.1,385.5-252.1,386z"/>
		</g>
	</g>
</g>
</svg>
